<?xml version="1.0" encoding="utf-8" standalone="no"?>
<!DOCTYPE svg PUBLIC "-//W3C//DTD SVG 1.1//EN"
  "http://www.w3.org/Graphics/SVG/1.1/DTD/svg11.dtd">
<svg xmlns:xlink="http://www.w3.org/1999/xlink" width="863.00375pt" height="432.478125pt" viewBox="0 0 863.00375 432.478125" xmlns="http://www.w3.org/2000/svg" version="1.1">
 <metadata>
  <rdf:RDF xmlns:dc="http://purl.org/dc/elements/1.1/" xmlns:cc="http://creativecommons.org/ns#" xmlns:rdf="http://www.w3.org/1999/02/22-rdf-syntax-ns#">
   <cc:Work>
    <dc:type rdf:resource="http://purl.org/dc/dcmitype/StillImage"/>
    <dc:format>image/svg+xml</dc:format>
    <dc:creator>
     <cc:Agent>
      <dc:title>Matplotlib v3.9.0, https://matplotlib.org/</dc:title>
     </cc:Agent>
    </dc:creator>
   </cc:Work>
  </rdf:RDF>
 </metadata>
 <defs>
  <style type="text/css">*{stroke-linejoin: round; stroke-linecap: butt}</style>
 </defs>
 <g id="figure_1">
  <g id="patch_1">
   <path d="M -0 432.478125 
L 863.00375 432.478125 
L 863.00375 0 
L -0 0 
z
" style="fill: #ffffff"/>
  </g>
  <g id="axes_1">
   <g id="patch_2">
    <path d="M 50.14375 385.478125 
L 849.32375 385.478125 
L 849.32375 22.318125 
L 50.14375 22.318125 
z
" style="fill: #ffffff"/>
   </g>
   <g id="PolyCollection_1">
    <defs>
     <path id="m30b29684b6" d="M 86.470114 -76.356562 
L 86.470114 -76.356562 
L 92.575385 -76.273614 
L 98.680656 -76.25749 
L 104.785927 -76.182213 
L 110.891198 -76.178533 
L 116.99647 -76.142735 
L 123.101741 -76.007865 
L 129.207012 -75.814333 
L 135.312283 -75.521731 
L 141.417554 -75.166387 
L 147.522826 -75.053608 
L 153.628097 -75.090736 
L 159.733368 -77.247853 
L 165.838639 -76.690897 
L 171.94391 -77.247853 
L 178.049182 -75.923447 
L 184.154453 -76.063866 
L 190.259724 -76.555536 
L 196.364995 -76.063866 
L 202.470266 -76.015713 
L 208.575538 -76.443099 
L 214.680809 -77.576542 
L 220.78608 -77.857538 
L 226.891351 -78.774412 
L 232.996622 -78.774412 
L 239.101894 -79.628329 
L 245.207165 -79.628329 
L 251.312436 -77.606122 
L 257.417707 -76.471132 
L 263.522978 -75.943892 
L 269.62825 -74.564727 
L 275.733521 -72.334106 
L 281.838792 -71.618841 
L 287.944063 -69.653743 
L 294.049334 -67.679933 
L 300.154606 -66.464218 
L 306.259877 -66.720074 
L 312.365148 -67.780088 
L 318.470419 -67.11342 
L 324.57569 -67.31752 
L 330.680962 -68.304233 
L 336.786233 -69.10159 
L 342.891504 -69.005649 
L 348.996775 -67.829702 
L 355.102046 -67.58603 
L 361.207318 -67.072796 
L 367.312589 -67.072796 
L 373.41786 -67.072796 
L 379.523131 -66.682658 
L 385.628402 -67.348847 
L 391.733674 -67.751964 
L 397.838945 -67.811897 
L 403.944216 -68.336289 
L 410.049487 -68.489909 
L 416.154758 -69.68334 
L 422.26003 -71.970036 
L 428.365301 -72.201125 
L 434.470572 -72.46141 
L 440.575843 -72.233249 
L 446.681114 -71.222874 
L 452.786386 -70.400381 
L 458.891657 -70.503047 
L 464.996928 -73.101203 
L 471.102199 -76.165079 
L 477.20747 -78.736269 
L 483.312742 -78.846494 
L 489.418013 -78.846494 
L 495.523284 -78.846494 
L 501.628555 -78.801169 
L 507.733826 -79.150589 
L 513.839098 -79.337539 
L 519.944369 -79.997813 
L 526.04964 -81.304698 
L 532.154911 -81.304698 
L 538.260182 -81.304698 
L 544.365454 -80.061814 
L 550.470725 -77.826154 
L 556.575996 -74.990638 
L 562.681267 -75.093193 
L 568.786538 -73.552893 
L 574.89181 -72.651415 
L 580.997081 -71.401959 
L 587.102352 -71.092045 
L 593.207623 -68.745109 
L 599.312894 -68.243889 
L 605.418166 -70.044945 
L 611.523437 -70.60884 
L 617.628708 -69.597911 
L 623.733979 -69.195819 
L 629.83925 -69.021972 
L 635.944522 -69.298819 
L 642.049793 -69.758461 
L 648.155064 -69.892618 
L 654.260335 -69.892618 
L 660.365606 -69.741848 
L 666.470878 -69.298819 
L 672.576149 -68.977997 
L 678.68142 -69.492432 
L 684.786691 -69.027998 
L 690.891962 -68.591266 
L 696.997234 -67.961513 
L 703.102505 -68.96458 
L 709.207776 -69.751519 
L 715.313047 -70.08176 
L 721.418318 -70.500409 
L 727.52359 -70.178392 
L 733.628861 -72.450066 
L 739.734132 -73.342953 
L 745.839403 -73.103395 
L 751.944674 -73.593011 
L 758.049946 -73.932419 
L 764.155217 -74.490145 
L 770.260488 -76.171735 
L 776.365759 -75.936769 
L 782.47103 -76.755432 
L 788.576302 -76.755432 
L 794.681573 -76.054345 
L 800.786844 -76.518295 
L 806.892115 -77.27552 
L 812.997386 -76.400719 
L 812.997386 -85.921695 
L 812.997386 -85.921695 
L 806.892115 -85.282046 
L 800.786844 -86.039271 
L 794.681573 -86.503221 
L 788.576302 -85.566982 
L 782.47103 -85.566982 
L 776.365759 -86.385645 
L 770.260488 -85.150867 
L 764.155217 -85.477757 
L 758.049946 -84.602828 
L 751.944674 -83.93115 
L 745.839403 -84.420766 
L 739.734132 -83.188425 
L 733.628861 -81.448485 
L 727.52359 -81.773522 
L 721.418318 -80.837745 
L 715.313047 -80.469421 
L 709.207776 -80.13918 
L 703.102505 -80.926118 
L 696.997234 -80.796516 
L 690.891962 -79.954369 
L 684.786691 -79.517637 
L 678.68142 -79.053203 
L 672.576149 -77.412607 
L 666.470878 -77.091786 
L 660.365606 -76.648756 
L 654.260335 -76.497986 
L 648.155064 -76.497986 
L 642.049793 -76.632144 
L 635.944522 -77.091786 
L 629.83925 -78.515947 
L 623.733979 -79.605766 
L 617.628708 -80.094466 
L 611.523437 -79.44491 
L 605.418166 -80.454892 
L 599.312894 -82.518574 
L 593.207623 -83.89076 
L 587.102352 -83.764237 
L 580.997081 -84.027085 
L 574.89181 -86.136582 
L 568.786538 -89.850666 
L 562.681267 -91.199214 
L 556.575996 -92.9512 
L 550.470725 -91.05101 
L 544.365454 -90.138121 
L 538.260182 -88.895237 
L 532.154911 -88.895237 
L 526.04964 -88.895237 
L 519.944369 -88.90805 
L 513.839098 -88.814954 
L 507.733826 -88.79125 
L 501.628555 -89.140669 
L 495.523284 -89.095345 
L 489.418013 -89.095345 
L 483.312742 -89.095345 
L 477.20747 -89.20557 
L 471.102199 -88.185629 
L 464.996928 -87.167574 
L 458.891657 -87.859184 
L 452.786386 -86.67847 
L 446.681114 -85.544026 
L 440.575843 -83.445644 
L 434.470572 -82.271935 
L 428.365301 -81.800259 
L 422.26003 -80.054719 
L 416.154758 -79.766749 
L 410.049487 -79.656931 
L 403.944216 -79.686793 
L 397.838945 -79.295518 
L 391.733674 -76.972301 
L 385.628402 -75.715345 
L 379.523131 -76.381534 
L 373.41786 -75.991397 
L 367.312589 -75.991397 
L 361.207318 -75.991397 
L 355.102046 -77.861313 
L 348.996775 -77.456363 
L 342.891504 -78.825553 
L 336.786233 -78.921493 
L 330.680962 -79.842606 
L 324.57569 -81.201707 
L 318.470419 -81.405808 
L 312.365148 -82.538925 
L 306.259877 -85.005346 
L 300.154606 -86.269931 
L 294.049334 -85.999693 
L 287.944063 -85.029512 
L 281.838792 -85.265928 
L 275.733521 -87.080373 
L 269.62825 -87.52076 
L 263.522978 -87.787172 
L 257.417707 -88.582937 
L 251.312436 -87.660207 
L 245.207165 -87.721061 
L 239.101894 -87.721061 
L 232.996622 -86.491917 
L 226.891351 -86.491917 
L 220.78608 -86.383268 
L 214.680809 -86.664264 
L 208.575538 -87.500224 
L 202.470266 -87.347795 
L 196.364995 -87.229567 
L 190.259724 -86.807971 
L 184.154453 -87.229567 
L 178.049182 -86.091966 
L 171.94391 -86.045581 
L 165.838639 -86.672611 
L 159.733368 -86.045581 
L 153.628097 -86.115026 
L 147.522826 -84.064481 
L 141.417554 -82.273794 
L 135.312283 -80.240541 
L 129.207012 -78.940615 
L 123.101741 -77.73976 
L 116.99647 -77.251247 
L 110.891198 -76.861806 
L 104.785927 -77.048161 
L 98.680656 -76.455633 
L 92.575385 -76.372686 
L 86.470114 -76.356562 
z
" style="stroke: #2a9d8f; stroke-opacity: 0.16"/>
    </defs>
    <g clip-path="url(#p903db8323c)">
     <use xlink:href="#m30b29684b6" x="0" y="432.478125" style="fill: #2a9d8f; fill-opacity: 0.16; stroke: #2a9d8f; stroke-opacity: 0.16"/>
    </g>
   </g>
   <g id="patch_3">
    <path d="M 513.839098 385.478125 
L 526.04964 385.478125 
L 526.04964 22.318125 
L 513.839098 22.318125 
z
" clip-path="url(#p903db8323c)" style="fill: #7b2cbf; opacity: 0.13; stroke: #7b2cbf; stroke-linejoin: miter"/>
   </g>
   <g id="matplotlib.axis_1">
    <g id="xtick_1">
     <g id="line2d_1">
      <path d="M 86.470114 385.478125 
L 86.470114 22.318125 
" clip-path="url(#p903db8323c)" style="fill: none; stroke: #b0b0b0; stroke-opacity: 0.25; stroke-width: 0.8; stroke-linecap: square"/>
     </g>
     <g id="line2d_2">
      <defs>
       <path id="m39daee6844" d="M 0 0 
L 0 3.5 
" style="stroke: #000000; stroke-width: 0.8"/>
      </defs>
      <g>
       <use xlink:href="#m39daee6844" x="86.470114" y="385.478125" style="stroke: #000000; stroke-width: 0.8"/>
      </g>
     </g>
     <g id="text_1">
      <text style="font: 10px 'DejaVu Sans'; text-anchor: middle" x="86.470114" y="400.076563" transform="rotate(-0 86.470114 400.076563)">0</text>
     </g>
    </g>
    <g id="xtick_2">
     <g id="line2d_3">
      <path d="M 208.575538 385.478125 
L 208.575538 22.318125 
" clip-path="url(#p903db8323c)" style="fill: none; stroke: #b0b0b0; stroke-opacity: 0.25; stroke-width: 0.8; stroke-linecap: square"/>
     </g>
     <g id="line2d_4">
      <g>
       <use xlink:href="#m39daee6844" x="208.575538" y="385.478125" style="stroke: #000000; stroke-width: 0.8"/>
      </g>
     </g>
     <g id="text_2">
      <text style="font: 10px 'DejaVu Sans'; text-anchor: middle" x="208.575538" y="400.076563" transform="rotate(-0 208.575538 400.076563)">20</text>
     </g>
    </g>
    <g id="xtick_3">
     <g id="line2d_5">
      <path d="M 330.680962 385.478125 
L 330.680962 22.318125 
" clip-path="url(#p903db8323c)" style="fill: none; stroke: #b0b0b0; stroke-opacity: 0.25; stroke-width: 0.8; stroke-linecap: square"/>
     </g>
     <g id="line2d_6">
      <g>
       <use xlink:href="#m39daee6844" x="330.680962" y="385.478125" style="stroke: #000000; stroke-width: 0.8"/>
      </g>
     </g>
     <g id="text_3">
      <text style="font: 10px 'DejaVu Sans'; text-anchor: middle" x="330.680962" y="400.076563" transform="rotate(-0 330.680962 400.076563)">40</text>
     </g>
    </g>
    <g id="xtick_4">
     <g id="line2d_7">
      <path d="M 452.786386 385.478125 
L 452.786386 22.318125 
" clip-path="url(#p903db8323c)" style="fill: none; stroke: #b0b0b0; stroke-opacity: 0.25; stroke-width: 0.8; stroke-linecap: square"/>
     </g>
     <g id="line2d_8">
      <g>
       <use xlink:href="#m39daee6844" x="452.786386" y="385.478125" style="stroke: #000000; stroke-width: 0.8"/>
      </g>
     </g>
     <g id="text_4">
      <text style="font: 10px 'DejaVu Sans'; text-anchor: middle" x="452.786386" y="400.076563" transform="rotate(-0 452.786386 400.076563)">60</text>
     </g>
    </g>
    <g id="xtick_5">
     <g id="line2d_9">
      <path d="M 574.89181 385.478125 
L 574.89181 22.318125 
" clip-path="url(#p903db8323c)" style="fill: none; stroke: #b0b0b0; stroke-opacity: 0.25; stroke-width: 0.8; stroke-linecap: square"/>
     </g>
     <g id="line2d_10">
      <g>
       <use xlink:href="#m39daee6844" x="574.89181" y="385.478125" style="stroke: #000000; stroke-width: 0.8"/>
      </g>
     </g>
     <g id="text_5">
      <text style="font: 10px 'DejaVu Sans'; text-anchor: middle" x="574.89181" y="400.076563" transform="rotate(-0 574.89181 400.076563)">80</text>
     </g>
    </g>
    <g id="xtick_6">
     <g id="line2d_11">
      <path d="M 696.997234 385.478125 
L 696.997234 22.318125 
" clip-path="url(#p903db8323c)" style="fill: none; stroke: #b0b0b0; stroke-opacity: 0.25; stroke-width: 0.8; stroke-linecap: square"/>
     </g>
     <g id="line2d_12">
      <g>
       <use xlink:href="#m39daee6844" x="696.997234" y="385.478125" style="stroke: #000000; stroke-width: 0.8"/>
      </g>
     </g>
     <g id="text_6">
      <text style="font: 10px 'DejaVu Sans'; text-anchor: middle" x="696.997234" y="400.076563" transform="rotate(-0 696.997234 400.076563)">100</text>
     </g>
    </g>
    <g id="xtick_7">
     <g id="line2d_13">
      <path d="M 819.102658 385.478125 
L 819.102658 22.318125 
" clip-path="url(#p903db8323c)" style="fill: none; stroke: #b0b0b0; stroke-opacity: 0.25; stroke-width: 0.8; stroke-linecap: square"/>
     </g>
     <g id="line2d_14">
      <g>
       <use xlink:href="#m39daee6844" x="819.102658" y="385.478125" style="stroke: #000000; stroke-width: 0.8"/>
      </g>
     </g>
     <g id="text_7">
      <text style="font: 10px 'DejaVu Sans'; text-anchor: middle" x="819.102658" y="400.076563" transform="rotate(-0 819.102658 400.076563)">120</text>
     </g>
    </g>
    <g id="text_8">
     <text style="font: 10px 'DejaVu Sans'; text-anchor: middle" x="449.73375" y="413.754688" transform="rotate(-0 449.73375 413.754688)">Rolling summary index (1 per minute)</text>
    </g>
   </g>
   <g id="matplotlib.axis_2">
    <g id="ytick_1">
     <g id="line2d_15">
      <path d="M 50.14375 380.503817 
L 849.32375 380.503817 
" clip-path="url(#p903db8323c)" style="fill: none; stroke: #b0b0b0; stroke-opacity: 0.25; stroke-width: 0.8; stroke-linecap: square"/>
     </g>
     <g id="line2d_16">
      <defs>
       <path id="md25e33dc07" d="M 0 0 
L -3.5 0 
" style="stroke: #000000; stroke-width: 0.8"/>
      </defs>
      <g>
       <use xlink:href="#md25e33dc07" x="50.14375" y="380.503817" style="stroke: #000000; stroke-width: 0.8"/>
      </g>
     </g>
     <g id="text_9">
      <text style="font: 10px 'DejaVu Sans'; text-anchor: end" x="43.14375" y="384.303036" transform="rotate(-0 43.14375 384.303036)">2.5</text>
     </g>
    </g>
    <g id="ytick_2">
     <g id="line2d_17">
      <path d="M 50.14375 338.835717 
L 849.32375 338.835717 
" clip-path="url(#p903db8323c)" style="fill: none; stroke: #b0b0b0; stroke-opacity: 0.25; stroke-width: 0.8; stroke-linecap: square"/>
     </g>
     <g id="line2d_18">
      <g>
       <use xlink:href="#md25e33dc07" x="50.14375" y="338.835717" style="stroke: #000000; stroke-width: 0.8"/>
      </g>
     </g>
     <g id="text_10">
      <text style="font: 10px 'DejaVu Sans'; text-anchor: end" x="43.14375" y="342.634936" transform="rotate(-0 43.14375 342.634936)">5.0</text>
     </g>
    </g>
    <g id="ytick_3">
     <g id="line2d_19">
      <path d="M 50.14375 297.167617 
L 849.32375 297.167617 
" clip-path="url(#p903db8323c)" style="fill: none; stroke: #b0b0b0; stroke-opacity: 0.25; stroke-width: 0.8; stroke-linecap: square"/>
     </g>
     <g id="line2d_20">
      <g>
       <use xlink:href="#md25e33dc07" x="50.14375" y="297.167617" style="stroke: #000000; stroke-width: 0.8"/>
      </g>
     </g>
     <g id="text_11">
      <text style="font: 10px 'DejaVu Sans'; text-anchor: end" x="43.14375" y="300.966836" transform="rotate(-0 43.14375 300.966836)">7.5</text>
     </g>
    </g>
    <g id="ytick_4">
     <g id="line2d_21">
      <path d="M 50.14375 255.499517 
L 849.32375 255.499517 
" clip-path="url(#p903db8323c)" style="fill: none; stroke: #b0b0b0; stroke-opacity: 0.25; stroke-width: 0.8; stroke-linecap: square"/>
     </g>
     <g id="line2d_22">
      <g>
       <use xlink:href="#md25e33dc07" x="50.14375" y="255.499517" style="stroke: #000000; stroke-width: 0.8"/>
      </g>
     </g>
     <g id="text_12">
      <text style="font: 10px 'DejaVu Sans'; text-anchor: end" x="43.14375" y="259.298736" transform="rotate(-0 43.14375 259.298736)">10.0</text>
     </g>
    </g>
    <g id="ytick_5">
     <g id="line2d_23">
      <path d="M 50.14375 213.831418 
L 849.32375 213.831418 
" clip-path="url(#p903db8323c)" style="fill: none; stroke: #b0b0b0; stroke-opacity: 0.25; stroke-width: 0.8; stroke-linecap: square"/>
     </g>
     <g id="line2d_24">
      <g>
       <use xlink:href="#md25e33dc07" x="50.14375" y="213.831418" style="stroke: #000000; stroke-width: 0.8"/>
      </g>
     </g>
     <g id="text_13">
      <text style="font: 10px 'DejaVu Sans'; text-anchor: end" x="43.14375" y="217.630636" transform="rotate(-0 43.14375 217.630636)">12.5</text>
     </g>
    </g>
    <g id="ytick_6">
     <g id="line2d_25">
      <path d="M 50.14375 172.163318 
L 849.32375 172.163318 
" clip-path="url(#p903db8323c)" style="fill: none; stroke: #b0b0b0; stroke-opacity: 0.25; stroke-width: 0.8; stroke-linecap: square"/>
     </g>
     <g id="line2d_26">
      <g>
       <use xlink:href="#md25e33dc07" x="50.14375" y="172.163318" style="stroke: #000000; stroke-width: 0.8"/>
      </g>
     </g>
     <g id="text_14">
      <text style="font: 10px 'DejaVu Sans'; text-anchor: end" x="43.14375" y="175.962536" transform="rotate(-0 43.14375 175.962536)">15.0</text>
     </g>
    </g>
    <g id="ytick_7">
     <g id="line2d_27">
      <path d="M 50.14375 130.495218 
L 849.32375 130.495218 
" clip-path="url(#p903db8323c)" style="fill: none; stroke: #b0b0b0; stroke-opacity: 0.25; stroke-width: 0.8; stroke-linecap: square"/>
     </g>
     <g id="line2d_28">
      <g>
       <use xlink:href="#md25e33dc07" x="50.14375" y="130.495218" style="stroke: #000000; stroke-width: 0.8"/>
      </g>
     </g>
     <g id="text_15">
      <text style="font: 10px 'DejaVu Sans'; text-anchor: end" x="43.14375" y="134.294436" transform="rotate(-0 43.14375 134.294436)">17.5</text>
     </g>
    </g>
    <g id="ytick_8">
     <g id="line2d_29">
      <path d="M 50.14375 88.827118 
L 849.32375 88.827118 
" clip-path="url(#p903db8323c)" style="fill: none; stroke: #b0b0b0; stroke-opacity: 0.25; stroke-width: 0.8; stroke-linecap: square"/>
     </g>
     <g id="line2d_30">
      <g>
       <use xlink:href="#md25e33dc07" x="50.14375" y="88.827118" style="stroke: #000000; stroke-width: 0.8"/>
      </g>
     </g>
     <g id="text_16">
      <text style="font: 10px 'DejaVu Sans'; text-anchor: end" x="43.14375" y="92.626336" transform="rotate(-0 43.14375 92.626336)">20.0</text>
     </g>
    </g>
    <g id="ytick_9">
     <g id="line2d_31">
      <path d="M 50.14375 47.159018 
L 849.32375 47.159018 
" clip-path="url(#p903db8323c)" style="fill: none; stroke: #b0b0b0; stroke-opacity: 0.25; stroke-width: 0.8; stroke-linecap: square"/>
     </g>
     <g id="line2d_32">
      <g>
       <use xlink:href="#md25e33dc07" x="50.14375" y="47.159018" style="stroke: #000000; stroke-width: 0.8"/>
      </g>
     </g>
     <g id="text_17">
      <text style="font: 10px 'DejaVu Sans'; text-anchor: end" x="43.14375" y="50.958236" transform="rotate(-0 43.14375 50.958236)">22.5</text>
     </g>
    </g>
    <g id="text_18">
     <text style="font: 10px 'DejaVu Sans'; text-anchor: middle" x="14.798438" y="203.898125" transform="rotate(-90 14.798438 203.898125)">Example feature value</text>
    </g>
   </g>
   <g id="line2d_33">
    <path d="M 86.470114 356.121563 
L 92.575385 356.188386 
L 98.680656 355.604312 
L 104.785927 352.91908 
L 110.891198 355.957955 
L 116.99647 350.831408 
L 123.101741 354.596989 
L 129.207012 348.168531 
L 135.312283 350.251592 
L 141.417554 344.624068 
L 147.522826 347.864415 
L 153.628097 350.761334 
L 159.733368 347.913734 
L 165.838639 344.48142 
L 171.94391 352.109428 
L 178.049182 354.639138 
L 184.154453 346.904043 
L 190.259724 347.681817 
L 196.364995 355.633856 
L 202.470266 346.650955 
L 208.575538 345.25827 
L 214.680809 350.463852 
L 220.78608 353.432343 
L 226.891351 349.438329 
L 232.996622 358.643163 
L 239.101894 344.9936 
L 245.207165 356.651497 
L 251.312436 355.642768 
L 257.417707 357.98574 
L 263.522978 356.579333 
L 269.62825 364.001254 
L 275.733521 361.794838 
L 281.838792 364.436672 
L 287.944063 368.970852 
L 294.049334 362.797099 
L 300.154606 363.072427 
L 306.259877 358.451282 
L 312.365148 361.027022 
L 318.470419 365.984023 
L 324.57569 355.171403 
L 330.680962 358.358129 
L 336.786233 358.481885 
L 342.891504 363.367064 
L 348.996775 364.432605 
L 355.102046 354.225856 
L 361.207318 360.865035 
L 367.312589 347.660396 
L 373.41786 355.783462 
L 379.523131 352.007358 
L 385.628402 359.36695 
L 391.733674 357.148033 
L 397.838945 355.051502 
L 403.944216 353.913906 
L 410.049487 353.963494 
L 416.154758 352.680114 
L 422.26003 348.387529 
L 428.365301 347.093457 
L 434.470572 344.945911 
L 440.575843 342.566988 
L 446.681114 345.417272 
L 452.786386 346.118106 
L 458.891657 345.094603 
L 464.996928 348.416228 
L 471.102199 348.598184 
L 477.20747 347.662858 
L 483.312742 350.06566 
L 489.418013 345.465392 
L 495.523284 354.845985 
L 501.628555 357.690398 
L 507.733826 351.487032 
L 513.839098 122.161598 
L 519.944369 38.825398 
L 526.04964 155.496078 
L 532.154911 354.681221 
L 538.260182 358.581191 
L 544.365454 357.066398 
L 550.470725 357.329025 
L 556.575996 362.119296 
L 562.681267 355.253983 
L 568.786538 357.127389 
L 574.89181 357.573475 
L 580.997081 366.497702 
L 587.102352 362.291778 
L 593.207623 361.702634 
L 599.312894 364.075878 
L 605.418166 358.83714 
L 611.523437 360.641068 
L 617.628708 368.144102 
L 623.733979 359.728505 
L 629.83925 360.607124 
L 635.944522 363.619679 
L 642.049793 357.361081 
L 648.155064 357.043988 
L 654.260335 352.786317 
L 660.365606 356.430229 
L 666.470878 352.202032 
L 672.576149 353.634687 
L 678.68142 354.62747 
L 684.786691 344.711894 
L 690.891962 348.684161 
L 696.997234 351.196464 
L 703.102505 357.704471 
L 709.207776 357.769182 
L 715.313047 347.579799 
L 721.418318 356.574108 
L 727.52359 348.893145 
L 733.628861 353.797402 
L 739.734132 343.323341 
L 745.839403 343.157032 
L 751.944674 355.864002 
L 758.049946 351.431616 
L 764.155217 351.20222 
L 770.260488 350.336092 
L 776.365759 343.310907 
L 782.47103 353.332593 
L 788.576302 351.563639 
L 794.681573 346.953429 
L 800.786844 354.001609 
L 806.892115 348.960817 
L 812.997386 358.588591 
" clip-path="url(#p903db8323c)" style="fill: none; stroke: #adb5bd; stroke-linecap: square"/>
   </g>
   <g id="line2d_34">
    <path d="M 86.470114 356.121563 
L 92.575385 356.154975 
L 98.680656 355.971421 
L 104.785927 355.208336 
L 110.891198 355.35826 
L 116.99647 354.603784 
L 123.101741 354.602814 
L 129.207012 353.798528 
L 135.312283 353.404424 
L 141.417554 352.526389 
L 147.522826 352.102573 
L 153.628097 351.990803 
L 159.733368 351.677182 
L 165.838639 351.163199 
L 171.94391 351.226281 
L 178.049182 351.439585 
L 184.154453 351.172788 
L 190.259724 350.978845 
L 196.364995 351.223846 
L 202.470266 350.995201 
L 208.575538 350.452037 
L 214.680809 350.16581 
L 220.78608 350.057212 
L 226.891351 349.883174 
L 232.996622 350.017434 
L 239.101894 349.725544 
L 245.207165 349.828269 
L 251.312436 350.201981 
L 257.417707 350.588689 
L 263.522978 351.186452 
L 269.62825 351.993294 
L 275.733521 352.544969 
L 281.838792 353.371116 
L 287.944063 354.595587 
L 294.049334 355.129971 
L 300.154606 355.551635 
L 306.259877 356.128997 
L 312.365148 356.796258 
L 318.470419 357.313766 
L 324.57569 357.739788 
L 330.680962 358.394781 
L 336.786233 358.795683 
L 342.891504 359.292419 
L 348.996775 360.042133 
L 355.102046 359.821268 
L 361.207318 360.614839 
L 367.312589 360.165284 
L 373.41786 360.172319 
L 379.523131 359.8734 
L 385.628402 360.012781 
L 391.733674 359.67012 
L 397.838945 359.332953 
L 403.944216 358.806814 
L 410.049487 358.056447 
L 416.154758 357.550597 
L 422.26003 356.816352 
L 428.365301 356.248461 
L 434.470572 355.444406 
L 440.575843 354.273554 
L 446.681114 353.785847 
L 452.786386 353.173846 
L 458.891657 352.504482 
L 464.996928 351.75694 
L 471.102199 350.965219 
L 477.20747 350.637069 
L 483.312742 350.0971 
L 489.418013 349.98735 
L 495.523284 349.940476 
L 501.628555 350.224628 
L 507.733826 349.830632 
L 513.839098 338.081311 
L 519.944369 322.270006 
L 526.04964 312.349114 
L 532.154911 312.385 
L 538.260182 312.680054 
L 544.365454 313.113998 
L 550.470725 313.625776 
L 556.575996 314.484445 
L 562.681267 315.118795 
L 568.786538 315.704301 
L 574.89181 316.277069 
L 580.997081 317.347224 
L 587.102352 318.041002 
L 593.207623 318.696224 
L 599.312894 319.516875 
L 605.418166 319.955449 
L 611.523437 320.714233 
L 617.628708 321.379139 
L 623.733979 321.481044 
L 629.83925 321.937049 
L 635.944522 334.009953 
L 642.049793 349.936737 
L 648.155064 360.014133 
L 654.260335 359.919388 
L 660.365606 359.81184 
L 666.470878 359.568621 
L 672.576149 359.383904 
L 678.68142 359.009313 
L 684.786691 358.482209 
L 690.891962 358.060047 
L 696.997234 357.741197 
L 703.102505 357.301535 
L 709.207776 357.075405 
L 715.313047 356.369263 
L 721.418318 355.994175 
L 727.52359 355.496975 
L 733.628861 355.154792 
L 739.734132 353.913754 
L 745.839403 353.08518 
L 751.944674 352.848024 
L 758.049946 352.238621 
L 764.155217 351.930678 
L 770.260488 351.595283 
L 776.365759 351.121513 
L 782.47103 350.966631 
L 788.576302 350.934711 
L 794.681573 350.600648 
L 800.786844 350.569355 
L 806.892115 350.781801 
L 812.997386 351.277023 
" clip-path="url(#p903db8323c)" style="fill: none; stroke: #f4a261; stroke-width: 2; stroke-linecap: square"/>
   </g>
   <g id="line2d_35">
    <path d="M 86.470114 356.121563 
L 92.575385 356.154975 
L 98.680656 356.121563 
L 104.785927 355.862938 
L 110.891198 355.957955 
L 116.99647 355.781134 
L 123.101741 355.604312 
L 129.207012 355.100651 
L 135.312283 354.596989 
L 141.417554 353.758035 
L 147.522826 352.91908 
L 153.628097 351.875244 
L 159.733368 350.831408 
L 165.838639 350.796371 
L 171.94391 350.831408 
L 178.049182 351.470418 
L 184.154453 350.831408 
L 190.259724 350.796371 
L 196.364995 350.831408 
L 202.470266 350.796371 
L 208.575538 350.506463 
L 214.680809 350.357722 
L 220.78608 350.357722 
L 226.891351 349.84496 
L 232.996622 349.84496 
L 239.101894 348.80343 
L 245.207165 348.80343 
L 251.312436 349.84496 
L 257.417707 349.95109 
L 263.522978 350.612593 
L 269.62825 351.435381 
L 275.733521 352.770886 
L 281.838792 354.035741 
L 287.944063 355.136497 
L 294.049334 355.638312 
L 300.154606 356.11105 
L 306.259877 356.615415 
L 312.365148 357.318619 
L 318.470419 358.218511 
L 324.57569 358.218511 
L 330.680962 358.404705 
L 336.786233 358.466584 
L 342.891504 358.562524 
L 348.996775 359.835093 
L 355.102046 359.754454 
L 361.207318 360.946029 
L 367.312589 360.946029 
L 373.41786 360.946029 
L 379.523131 360.946029 
L 385.628402 360.946029 
L 391.733674 360.115993 
L 397.838945 358.924417 
L 403.944216 358.466584 
L 410.049487 358.404705 
L 416.154758 357.753081 
L 422.26003 356.465747 
L 428.365301 355.477433 
L 434.470572 355.111453 
L 440.575843 354.638679 
L 446.681114 354.094675 
L 452.786386 353.9387 
L 458.891657 353.29701 
L 464.996928 352.343736 
L 471.102199 350.302771 
L 477.20747 348.507206 
L 483.312742 348.507206 
L 489.418013 348.507206 
L 495.523284 348.507206 
L 501.628555 348.507206 
L 507.733826 348.507206 
L 513.839098 348.401878 
L 519.944369 348.025194 
L 526.04964 347.378157 
L 532.154911 347.378157 
L 538.260182 347.378157 
L 544.365454 347.378157 
L 550.470725 348.039543 
L 556.575996 348.507206 
L 562.681267 349.331922 
L 568.786538 350.776346 
L 574.89181 353.084126 
L 580.997081 354.763603 
L 587.102352 355.049984 
L 593.207623 356.16019 
L 599.312894 357.096894 
L 605.418166 357.228207 
L 611.523437 357.45125 
L 617.628708 357.631936 
L 623.733979 358.077333 
L 629.83925 358.709165 
L 635.944522 359.282823 
L 642.049793 359.282823 
L 648.155064 359.282823 
L 654.260335 359.282823 
L 660.365606 359.282823 
L 666.470878 359.282823 
L 672.576149 359.282823 
L 678.68142 358.205308 
L 684.786691 358.205308 
L 690.891962 358.205308 
L 696.997234 358.099111 
L 703.102505 357.532776 
L 709.207776 357.532776 
L 715.313047 357.202534 
L 721.418318 356.809048 
L 727.52359 356.502168 
L 733.628861 355.528849 
L 739.734132 354.212436 
L 745.839403 353.716044 
L 751.944674 353.716044 
L 758.049946 353.210502 
L 764.155217 352.494174 
L 770.260488 351.816824 
L 776.365759 351.316918 
L 782.47103 351.316918 
L 788.576302 351.316918 
L 794.681573 351.199342 
L 800.786844 351.199342 
L 806.892115 351.199342 
L 812.997386 351.316918 
" clip-path="url(#p903db8323c)" style="fill: none; stroke: #2a9d8f; stroke-width: 2; stroke-linecap: square"/>
   </g>
   <g id="patch_4">
    <path d="M 50.14375 385.478125 
L 50.14375 22.318125 
" style="fill: none; stroke: #000000; stroke-width: 0.8; stroke-linejoin: miter; stroke-linecap: square"/>
   </g>
   <g id="patch_5">
    <path d="M 50.14375 385.478125 
L 849.32375 385.478125 
" style="fill: none; stroke: #000000; stroke-width: 0.8; stroke-linejoin: miter; stroke-linecap: square"/>
   </g>
   <g id="text_19">
    <text style="font: 700 12px 'DejaVu Sans'; text-anchor: middle" x="449.73375" y="16.318125" transform="rotate(-0 449.73375 16.318125)">Moving mean drifts after outliers; median/MAD stays stable</text>
   </g>
   <g id="legend_1">
    <g id="patch_6">
     <path d="M 532.719063 74.3525 
L 842.32375 74.3525 
Q 844.32375 74.3525 844.32375 72.3525 
L 844.32375 29.318125 
Q 844.32375 27.318125 842.32375 27.318125 
L 532.719063 27.318125 
Q 530.719063 27.318125 530.719063 29.318125 
L 530.719063 72.3525 
Q 530.719063 74.3525 532.719063 74.3525 
z
" style="fill: #ffffff; opacity: 0.8; stroke: #cccccc; stroke-linejoin: miter"/>
    </g>
    <g id="line2d_36">
     <path d="M 534.719063 35.416562 
L 544.719063 35.416562 
L 554.719063 35.416562 
" style="fill: none; stroke: #adb5bd; stroke-linecap: square"/>
    </g>
    <g id="text_20">
     <text style="font: 10px 'DejaVu Sans'; text-anchor: start" x="562.719063" y="38.916562" transform="rotate(-0 562.719063 38.916562)">60 s feature summary</text>
    </g>
    <g id="line2d_37">
     <path d="M 534.719063 50.094688 
L 544.719063 50.094688 
L 554.719063 50.094688 
" style="fill: none; stroke: #f4a261; stroke-width: 2; stroke-linecap: square"/>
    </g>
    <g id="text_21">
     <text style="font: 10px 'DejaVu Sans'; text-anchor: start" x="562.719063" y="53.594688" transform="rotate(-0 562.719063 53.594688)">Moving mean</text>
    </g>
    <g id="line2d_38">
     <path d="M 534.719063 64.772812 
L 544.719063 64.772812 
L 554.719063 64.772812 
" style="fill: none; stroke: #2a9d8f; stroke-width: 2; stroke-linecap: square"/>
    </g>
    <g id="text_22">
     <text style="font: 10px 'DejaVu Sans'; text-anchor: start" x="562.719063" y="68.272812" transform="rotate(-0 562.719063 68.272812)">Rolling median</text>
    </g>
    <g id="patch_7">
     <path d="M 693.472188 38.916562 
L 713.472188 38.916562 
L 713.472188 31.916562 
L 693.472188 31.916562 
z
" style="fill: #2a9d8f; fill-opacity: 0.16; stroke: #2a9d8f; stroke-opacity: 0.16; stroke-linejoin: miter"/>
    </g>
    <g id="text_23">
     <text style="font: 10px 'DejaVu Sans'; text-anchor: start" x="721.472188" y="38.916562" transform="rotate(-0 721.472188 38.916562)">Median +/- robust scale</text>
    </g>
    <g id="patch_8">
     <path d="M 693.472188 53.594688 
L 713.472188 53.594688 
L 713.472188 46.594688 
L 693.472188 46.594688 
z
" style="fill: #7b2cbf; opacity: 0.13; stroke: #7b2cbf; stroke-linejoin: miter"/>
    </g>
    <g id="text_24">
     <text style="font: 10px 'DejaVu Sans'; text-anchor: start" x="721.472188" y="53.594688" transform="rotate(-0 721.472188 53.594688)">Outlier interval</text>
    </g>
   </g>
  </g>
  <g id="text_25">
   <text style="fill: #9d0208; font: 700 9px 'DejaVu Sans'; text-anchor: end" x="855.80375" y="423.336094" transform="rotate(-0 855.80375 423.336094)">Illustrative synthetic data</text>
  </g>
 </g>
 <defs>
  <clipPath id="p903db8323c">
   <rect x="50.14375" y="22.318125" width="799.18" height="363.16"/>
  </clipPath>
 </defs>
</svg>
