<?xml version="1.0" encoding="utf-8" standalone="no"?>
<!DOCTYPE svg PUBLIC "-//W3C//DTD SVG 1.1//EN"
  "http://www.w3.org/Graphics/SVG/1.1/DTD/svg11.dtd">
<svg xmlns:xlink="http://www.w3.org/1999/xlink" width="648.055625pt" height="504.118125pt" viewBox="0 0 648.055625 504.118125" xmlns="http://www.w3.org/2000/svg" version="1.1">
 <metadata>
  <rdf:RDF xmlns:dc="http://purl.org/dc/elements/1.1/" xmlns:cc="http://creativecommons.org/ns#" xmlns:rdf="http://www.w3.org/1999/02/22-rdf-syntax-ns#">
   <cc:Work>
    <dc:type rdf:resource="http://purl.org/dc/dcmitype/StillImage"/>
    <dc:format>image/svg+xml</dc:format>
    <dc:creator>
     <cc:Agent>
      <dc:title>Matplotlib v3.9.0, https://matplotlib.org/</dc:title>
     </cc:Agent>
    </dc:creator>
   </cc:Work>
  </rdf:RDF>
 </metadata>
 <defs>
  <style type="text/css">*{stroke-linejoin: round; stroke-linecap: butt}</style>
 </defs>
 <g id="figure_1">
  <g id="patch_1">
   <path d="M 0 504.118125 
L 648.055625 504.118125 
L 648.055625 -0 
L 0 -0 
z
" style="fill: #ffffff"/>
  </g>
  <g id="axes_1">
   <g id="patch_2">
    <path d="M 46.965625 457.478125 
L 623.800625 457.478125 
L 623.800625 22.318125 
L 46.965625 22.318125 
z
" style="fill: #ffffff"/>
   </g>
   <g id="QuadContourSet_1">
    <path d="M 49.8498 457.478125 
L 52.733975 457.478125 
L 55.61815 457.478125 
L 58.502325 457.478125 
L 61.3865 457.478125 
L 64.270675 457.478125 
L 67.15485 457.478125 
L 70.039025 457.478125 
L 72.9232 457.478125 
L 75.807375 457.478125 
L 78.69155 457.478125 
L 81.575725 457.478125 
L 84.4599 457.478125 
L 87.344075 457.478125 
L 90.22825 457.478125 
L 93.112425 457.478125 
L 95.9966 457.478125 
L 98.880775 457.478125 
L 101.76495 457.478125 
L 104.649125 457.478125 
L 107.5333 457.478125 
L 110.417475 457.478125 
L 113.30165 457.478125 
L 116.185825 457.478125 
L 119.07 457.478125 
L 121.954175 457.478125 
L 124.83835 457.478125 
L 127.722525 457.478125 
L 130.6067 457.478125 
L 133.490875 457.478125 
L 136.37505 457.478125 
L 139.259225 457.478125 
L 142.1434 457.478125 
L 145.027575 457.478125 
L 147.91175 457.478125 
L 150.795925 457.478125 
L 153.6801 457.478125 
L 156.564275 457.478125 
L 159.44845 457.478125 
L 162.332625 457.478125 
L 165.2168 457.478125 
L 168.100975 457.478125 
L 170.98515 457.478125 
L 173.869325 457.478125 
L 176.7535 457.478125 
L 179.637675 457.478125 
L 182.52185 457.478125 
L 185.406025 457.478125 
L 188.2902 457.478125 
L 191.174375 457.478125 
L 194.05855 457.478125 
L 196.942725 457.478125 
L 199.8269 457.478125 
L 202.711075 457.478125 
L 205.59525 457.478125 
L 208.479425 457.478125 
L 211.3636 457.478125 
L 214.247775 457.478125 
L 217.13195 457.478125 
L 220.016125 457.478125 
L 222.9003 457.478125 
L 225.784475 457.478125 
L 228.66865 457.478125 
L 231.552825 457.478125 
L 234.437 457.478125 
L 237.321175 457.478125 
L 240.20535 457.478125 
L 243.089525 457.478125 
L 245.9737 457.478125 
L 248.857875 457.478125 
L 251.74205 457.478125 
L 254.626225 457.478125 
L 257.5104 457.478125 
L 260.394575 457.478125 
L 263.27875 457.478125 
L 266.162925 457.478125 
L 269.0471 457.478125 
L 271.931275 457.478125 
L 274.81545 457.478125 
L 277.699625 457.478125 
L 280.5838 457.478125 
L 283.467975 457.478125 
L 286.35215 457.478125 
L 289.236325 457.478125 
L 292.1205 457.478125 
L 295.004675 457.478125 
L 297.88885 457.478125 
L 300.773025 457.478125 
L 303.6572 457.478125 
L 306.541375 457.478125 
L 309.42555 457.478125 
L 312.309725 457.478125 
L 315.1939 457.478125 
L 318.078075 457.478125 
L 320.96225 457.478125 
L 323.846425 457.478125 
L 326.7306 457.478125 
L 329.614775 457.478125 
L 332.49895 457.478125 
L 335.383125 457.478125 
L 338.2673 457.478125 
L 341.151475 457.478125 
L 344.03565 457.478125 
L 346.919825 457.478125 
L 349.804 457.478125 
L 352.688175 457.478125 
L 355.57235 457.478125 
L 358.456525 457.478125 
L 361.3407 457.478125 
L 362.782788 457.478125 
L 364.224875 456.390225 
L 365.666963 455.302325 
L 365.666963 453.126525 
L 365.666963 450.950725 
L 365.666963 448.774925 
L 367.10905 447.687025 
L 368.551138 446.599125 
L 368.551138 444.423325 
L 368.551138 442.247525 
L 368.551138 440.071725 
L 369.993225 438.983825 
L 371.435313 437.895925 
L 371.435313 435.720125 
L 371.435313 433.544325 
L 371.435313 431.368525 
L 372.8774 430.280625 
L 374.319488 429.192725 
L 374.319488 427.016925 
L 374.319488 424.841125 
L 374.319488 422.665325 
L 375.761575 421.577425 
L 377.203663 420.489525 
L 377.203663 418.313725 
L 377.203663 416.137925 
L 377.203663 413.962125 
L 378.64575 412.874225 
L 380.087838 411.786325 
L 380.087838 409.610525 
L 380.087838 407.434725 
L 380.087838 405.258925 
L 381.529925 404.171025 
L 382.972013 403.083125 
L 382.972013 400.907325 
L 382.972013 398.731525 
L 382.972013 396.555725 
L 384.4141 395.467825 
L 385.856188 394.379925 
L 385.856188 392.204125 
L 385.856188 390.028325 
L 385.856188 387.852525 
L 387.298275 386.764625 
L 388.740363 385.676725 
L 388.740363 383.500925 
L 388.740363 381.325125 
L 388.740363 379.149325 
L 390.18245 378.061425 
L 391.624538 376.973525 
L 391.624538 374.797725 
L 391.624538 372.621925 
L 391.624538 370.446125 
L 393.066625 369.358225 
L 394.508713 368.270325 
L 394.508713 366.094525 
L 394.508713 363.918725 
L 394.508713 361.742925 
L 395.9508 360.655025 
L 397.392888 359.567125 
L 397.392888 357.391325 
L 397.392888 355.215525 
L 397.392888 353.039725 
L 398.834975 351.951825 
L 400.277063 350.863925 
L 400.277063 348.688125 
L 400.277063 346.512325 
L 400.277063 344.336525 
L 401.71915 343.248625 
L 403.161238 342.160725 
L 403.161238 339.984925 
L 403.161238 337.809125 
L 403.161238 335.633325 
L 404.603325 334.545425 
L 406.045413 333.457525 
L 406.045413 331.281725 
L 406.045413 329.105925 
L 406.045413 326.930125 
L 407.4875 325.842225 
L 408.929588 324.754325 
L 408.929588 322.578525 
L 408.929588 320.402725 
L 408.929588 318.226925 
L 410.371675 317.139025 
L 411.813763 316.051125 
L 411.813763 313.875325 
L 411.813763 311.699525 
L 411.813763 309.523725 
L 413.25585 308.435825 
L 414.697938 307.347925 
L 414.697938 305.172125 
L 414.697938 302.996325 
L 414.697938 300.820525 
L 416.140025 299.732625 
L 417.582113 298.644725 
L 417.582113 296.468925 
L 417.582113 294.293125 
L 417.582113 292.117325 
L 419.0242 291.029425 
L 420.466288 289.941525 
L 420.466288 287.765725 
L 420.466288 285.589925 
L 420.466288 283.414125 
L 421.908375 282.326225 
L 423.350463 281.238325 
L 423.350463 279.062525 
L 423.350463 276.886725 
L 423.350463 274.710925 
L 424.79255 273.623025 
L 426.234638 272.535125 
L 426.234638 270.359325 
L 426.234638 268.183525 
L 426.234638 266.007725 
L 427.676725 264.919825 
L 429.118813 263.831925 
L 429.118813 261.656125 
L 429.118813 259.480325 
L 429.118813 257.304525 
L 430.5609 256.216625 
L 432.002988 255.128725 
L 432.002988 252.952925 
L 432.002988 250.777125 
L 432.002988 248.601325 
L 433.445075 247.513425 
L 434.887163 246.425525 
L 434.887163 244.249725 
L 434.887163 242.073925 
L 434.887163 239.898125 
L 436.32925 238.810225 
L 437.771338 237.722325 
L 437.771338 235.546525 
L 437.771338 233.370725 
L 437.771338 231.194925 
L 439.213425 230.107025 
L 440.655513 229.019125 
L 440.655513 226.843325 
L 440.655513 224.667525 
L 440.655513 222.491725 
L 442.0976 221.403825 
L 443.539688 220.315925 
L 443.539688 218.140125 
L 443.539688 215.964325 
L 443.539688 213.788525 
L 444.981775 212.700625 
L 446.423863 211.612725 
L 446.423863 209.436925 
L 446.423863 207.261125 
L 446.423863 205.085325 
L 447.86595 203.997425 
L 449.308038 202.909525 
L 449.308038 200.733725 
L 449.308038 198.557925 
L 449.308038 196.382125 
L 450.750125 195.294225 
L 452.192213 194.206325 
L 452.192213 192.030525 
L 452.192213 189.854725 
L 452.192213 187.678925 
L 453.6343 186.591025 
L 455.076388 185.503125 
L 455.076388 183.327325 
L 455.076388 181.151525 
L 455.076388 178.975725 
L 456.518475 177.887825 
L 457.960563 176.799925 
L 457.960563 174.624125 
L 457.960563 172.448325 
L 457.960563 170.272525 
L 459.40265 169.184625 
L 460.844738 168.096725 
L 460.844738 165.920925 
L 460.844738 163.745125 
L 460.844738 161.569325 
L 462.286825 160.481425 
L 463.728913 159.393525 
L 463.728913 157.217725 
L 463.728913 155.041925 
L 463.728913 152.866125 
L 465.171 151.778225 
L 466.613088 150.690325 
L 466.613088 148.514525 
L 466.613088 146.338725 
L 466.613088 144.162925 
L 468.055175 143.075025 
L 469.497263 141.987125 
L 469.497263 139.811325 
L 469.497263 137.635525 
L 469.497263 135.459725 
L 469.497263 133.283925 
L 469.497263 131.108125 
L 469.497263 128.932325 
L 469.497263 126.756525 
L 469.497263 124.580725 
L 469.497263 122.404925 
L 469.497263 120.229125 
L 469.497263 118.053325 
L 469.497263 115.877525 
L 469.497263 113.701725 
L 469.497263 111.525925 
L 469.497263 109.350125 
L 469.497263 107.174325 
L 469.497263 104.998525 
L 469.497263 102.822725 
L 469.497263 100.646925 
L 469.497263 98.471125 
L 469.497263 96.295325 
L 469.497263 94.119525 
L 469.497263 91.943725 
L 469.497263 89.767925 
L 469.497263 87.592125 
L 469.497263 85.416325 
L 469.497263 83.240525 
L 469.497263 81.064725 
L 469.497263 78.888925 
L 469.497263 76.713125 
L 469.497263 74.537325 
L 469.497263 72.361525 
L 469.497263 70.185725 
L 469.497263 68.009925 
L 469.497263 65.834125 
L 469.497263 63.658325 
L 469.497263 61.482525 
L 469.497263 59.306725 
L 469.497263 57.130925 
L 469.497263 54.955125 
L 469.497263 52.779325 
L 469.497263 50.603525 
L 469.497263 48.427725 
L 469.497263 46.251925 
L 469.497263 44.076125 
L 469.497263 41.900325 
L 469.497263 39.724525 
L 469.497263 37.548725 
L 469.497263 35.372925 
L 469.497263 33.197125 
L 469.497263 31.021325 
L 469.497263 28.845525 
L 469.497263 26.669725 
L 469.497263 24.493925 
L 469.497263 22.318125 
L 468.055175 22.318125 
L 465.171 22.318125 
L 462.286825 22.318125 
L 459.40265 22.318125 
L 456.518475 22.318125 
L 453.6343 22.318125 
L 450.750125 22.318125 
L 447.86595 22.318125 
L 444.981775 22.318125 
L 442.0976 22.318125 
L 439.213425 22.318125 
L 436.32925 22.318125 
L 433.445075 22.318125 
L 430.5609 22.318125 
L 427.676725 22.318125 
L 424.79255 22.318125 
L 421.908375 22.318125 
L 419.0242 22.318125 
L 416.140025 22.318125 
L 413.25585 22.318125 
L 410.371675 22.318125 
L 407.4875 22.318125 
L 404.603325 22.318125 
L 401.71915 22.318125 
L 398.834975 22.318125 
L 395.9508 22.318125 
L 393.066625 22.318125 
L 390.18245 22.318125 
L 387.298275 22.318125 
L 384.4141 22.318125 
L 381.529925 22.318125 
L 378.64575 22.318125 
L 375.761575 22.318125 
L 372.8774 22.318125 
L 369.993225 22.318125 
L 367.10905 22.318125 
L 364.224875 22.318125 
L 361.3407 22.318125 
L 358.456525 22.318125 
L 355.57235 22.318125 
L 352.688175 22.318125 
L 349.804 22.318125 
L 346.919825 22.318125 
L 344.03565 22.318125 
L 341.151475 22.318125 
L 338.2673 22.318125 
L 335.383125 22.318125 
L 332.49895 22.318125 
L 329.614775 22.318125 
L 326.7306 22.318125 
L 323.846425 22.318125 
L 320.96225 22.318125 
L 318.078075 22.318125 
L 315.1939 22.318125 
L 312.309725 22.318125 
L 309.42555 22.318125 
L 306.541375 22.318125 
L 303.6572 22.318125 
L 300.773025 22.318125 
L 297.88885 22.318125 
L 295.004675 22.318125 
L 292.1205 22.318125 
L 289.236325 22.318125 
L 286.35215 22.318125 
L 283.467975 22.318125 
L 280.5838 22.318125 
L 277.699625 22.318125 
L 274.81545 22.318125 
L 271.931275 22.318125 
L 269.0471 22.318125 
L 266.162925 22.318125 
L 263.27875 22.318125 
L 260.394575 22.318125 
L 257.5104 22.318125 
L 254.626225 22.318125 
L 251.74205 22.318125 
L 248.857875 22.318125 
L 245.9737 22.318125 
L 243.089525 22.318125 
L 240.20535 22.318125 
L 237.321175 22.318125 
L 234.437 22.318125 
L 231.552825 22.318125 
L 228.66865 22.318125 
L 225.784475 22.318125 
L 222.9003 22.318125 
L 220.016125 22.318125 
L 217.13195 22.318125 
L 214.247775 22.318125 
L 211.3636 22.318125 
L 208.479425 22.318125 
L 205.59525 22.318125 
L 202.711075 22.318125 
L 199.8269 22.318125 
L 196.942725 22.318125 
L 194.05855 22.318125 
L 191.174375 22.318125 
L 188.2902 22.318125 
L 185.406025 22.318125 
L 182.52185 22.318125 
L 179.637675 22.318125 
L 176.7535 22.318125 
L 173.869325 22.318125 
L 170.98515 22.318125 
L 168.100975 22.318125 
L 165.2168 22.318125 
L 162.332625 22.318125 
L 159.44845 22.318125 
L 156.564275 22.318125 
L 153.6801 22.318125 
L 150.795925 22.318125 
L 147.91175 22.318125 
L 145.027575 22.318125 
L 142.1434 22.318125 
L 139.259225 22.318125 
L 136.37505 22.318125 
L 133.490875 22.318125 
L 130.6067 22.318125 
L 127.722525 22.318125 
L 124.83835 22.318125 
L 121.954175 22.318125 
L 119.07 22.318125 
L 116.185825 22.318125 
L 113.30165 22.318125 
L 110.417475 22.318125 
L 107.5333 22.318125 
L 104.649125 22.318125 
L 101.76495 22.318125 
L 98.880775 22.318125 
L 95.9966 22.318125 
L 93.112425 22.318125 
L 90.22825 22.318125 
L 87.344075 22.318125 
L 84.4599 22.318125 
L 81.575725 22.318125 
L 78.69155 22.318125 
L 75.807375 22.318125 
L 72.9232 22.318125 
L 70.039025 22.318125 
L 67.15485 22.318125 
L 64.270675 22.318125 
L 61.3865 22.318125 
L 58.502325 22.318125 
L 55.61815 22.318125 
L 52.733975 22.318125 
L 49.8498 22.318125 
L 46.965625 22.318125 
L 46.965625 24.493925 
L 46.965625 26.669725 
L 46.965625 28.845525 
L 46.965625 31.021325 
L 46.965625 33.197125 
L 46.965625 35.372925 
L 46.965625 37.548725 
L 46.965625 39.724525 
L 46.965625 41.900325 
L 46.965625 44.076125 
L 46.965625 46.251925 
L 46.965625 48.427725 
L 46.965625 50.603525 
L 46.965625 52.779325 
L 46.965625 54.955125 
L 46.965625 57.130925 
L 46.965625 59.306725 
L 46.965625 61.482525 
L 46.965625 63.658325 
L 46.965625 65.834125 
L 46.965625 68.009925 
L 46.965625 70.185725 
L 46.965625 72.361525 
L 46.965625 74.537325 
L 46.965625 76.713125 
L 46.965625 78.888925 
L 46.965625 81.064725 
L 46.965625 83.240525 
L 46.965625 85.416325 
L 46.965625 87.592125 
L 46.965625 89.767925 
L 46.965625 91.943725 
L 46.965625 94.119525 
L 46.965625 96.295325 
L 46.965625 98.471125 
L 46.965625 100.646925 
L 46.965625 102.822725 
L 46.965625 104.998525 
L 46.965625 107.174325 
L 46.965625 109.350125 
L 46.965625 111.525925 
L 46.965625 113.701725 
L 46.965625 115.877525 
L 46.965625 118.053325 
L 46.965625 120.229125 
L 46.965625 122.404925 
L 46.965625 124.580725 
L 46.965625 126.756525 
L 46.965625 128.932325 
L 46.965625 131.108125 
L 46.965625 133.283925 
L 46.965625 135.459725 
L 46.965625 137.635525 
L 46.965625 139.811325 
L 46.965625 141.987125 
L 46.965625 144.162925 
L 46.965625 146.338725 
L 46.965625 148.514525 
L 46.965625 150.690325 
L 46.965625 152.866125 
L 46.965625 155.041925 
L 46.965625 157.217725 
L 46.965625 159.393525 
L 46.965625 161.569325 
L 46.965625 163.745125 
L 46.965625 165.920925 
L 46.965625 168.096725 
L 46.965625 170.272525 
L 46.965625 172.448325 
L 46.965625 174.624125 
L 46.965625 176.799925 
L 46.965625 178.975725 
L 46.965625 181.151525 
L 46.965625 183.327325 
L 46.965625 185.503125 
L 46.965625 187.678925 
L 46.965625 189.854725 
L 46.965625 192.030525 
L 46.965625 194.206325 
L 46.965625 196.382125 
L 46.965625 198.557925 
L 46.965625 200.733725 
L 46.965625 202.909525 
L 46.965625 205.085325 
L 46.965625 207.261125 
L 46.965625 209.436925 
L 46.965625 211.612725 
L 46.965625 213.788525 
L 46.965625 215.964325 
L 46.965625 218.140125 
L 46.965625 220.315925 
L 46.965625 222.491725 
L 46.965625 224.667525 
L 46.965625 226.843325 
L 46.965625 229.019125 
L 46.965625 231.194925 
L 46.965625 233.370725 
L 46.965625 235.546525 
L 46.965625 237.722325 
L 46.965625 239.898125 
L 46.965625 242.073925 
L 46.965625 244.249725 
L 46.965625 246.425525 
L 46.965625 248.601325 
L 46.965625 250.777125 
L 46.965625 252.952925 
L 46.965625 255.128725 
L 46.965625 257.304525 
L 46.965625 259.480325 
L 46.965625 261.656125 
L 46.965625 263.831925 
L 46.965625 266.007725 
L 46.965625 268.183525 
L 46.965625 270.359325 
L 46.965625 272.535125 
L 46.965625 274.710925 
L 46.965625 276.886725 
L 46.965625 279.062525 
L 46.965625 281.238325 
L 46.965625 283.414125 
L 46.965625 285.589925 
L 46.965625 287.765725 
L 46.965625 289.941525 
L 46.965625 292.117325 
L 46.965625 294.293125 
L 46.965625 296.468925 
L 46.965625 298.644725 
L 46.965625 300.820525 
L 46.965625 302.996325 
L 46.965625 305.172125 
L 46.965625 307.347925 
L 46.965625 309.523725 
L 46.965625 311.699525 
L 46.965625 313.875325 
L 46.965625 316.051125 
L 46.965625 318.226925 
L 46.965625 320.402725 
L 46.965625 322.578525 
L 46.965625 324.754325 
L 46.965625 326.930125 
L 46.965625 329.105925 
L 46.965625 331.281725 
L 46.965625 333.457525 
L 46.965625 335.633325 
L 46.965625 337.809125 
L 46.965625 339.984925 
L 46.965625 342.160725 
L 46.965625 344.336525 
L 46.965625 346.512325 
L 46.965625 348.688125 
L 46.965625 350.863925 
L 46.965625 353.039725 
L 46.965625 355.215525 
L 46.965625 357.391325 
L 46.965625 359.567125 
L 46.965625 361.742925 
L 46.965625 363.918725 
L 46.965625 366.094525 
L 46.965625 368.270325 
L 46.965625 370.446125 
L 46.965625 372.621925 
L 46.965625 374.797725 
L 46.965625 376.973525 
L 46.965625 379.149325 
L 46.965625 381.325125 
L 46.965625 383.500925 
L 46.965625 385.676725 
L 46.965625 387.852525 
L 46.965625 390.028325 
L 46.965625 392.204125 
L 46.965625 394.379925 
L 46.965625 396.555725 
L 46.965625 398.731525 
L 46.965625 400.907325 
L 46.965625 403.083125 
L 46.965625 405.258925 
L 46.965625 407.434725 
L 46.965625 409.610525 
L 46.965625 411.786325 
L 46.965625 413.962125 
L 46.965625 416.137925 
L 46.965625 418.313725 
L 46.965625 420.489525 
L 46.965625 422.665325 
L 46.965625 424.841125 
L 46.965625 427.016925 
L 46.965625 429.192725 
L 46.965625 431.368525 
L 46.965625 433.544325 
L 46.965625 435.720125 
L 46.965625 437.895925 
L 46.965625 440.071725 
L 46.965625 442.247525 
L 46.965625 444.423325 
L 46.965625 446.599125 
L 46.965625 448.774925 
L 46.965625 450.950725 
L 46.965625 453.126525 
L 46.965625 455.302325 
L 46.965625 457.478125 
z
" clip-path="url(#pf78fa634ab)" style="fill: #d8f3dc; fill-opacity: 0.85"/>
    <path d="M 364.224875 457.478125 
L 367.10905 457.478125 
L 369.993225 457.478125 
L 372.8774 457.478125 
L 375.761575 457.478125 
L 378.64575 457.478125 
L 381.529925 457.478125 
L 384.4141 457.478125 
L 387.298275 457.478125 
L 390.18245 457.478125 
L 393.066625 457.478125 
L 395.9508 457.478125 
L 398.834975 457.478125 
L 401.71915 457.478125 
L 404.603325 457.478125 
L 407.4875 457.478125 
L 410.371675 457.478125 
L 413.25585 457.478125 
L 416.140025 457.478125 
L 419.0242 457.478125 
L 421.908375 457.478125 
L 424.79255 457.478125 
L 427.676725 457.478125 
L 430.5609 457.478125 
L 433.445075 457.478125 
L 436.32925 457.478125 
L 439.213425 457.478125 
L 442.0976 457.478125 
L 444.981775 457.478125 
L 447.86595 457.478125 
L 449.308038 457.478125 
L 450.750125 456.390225 
L 452.192213 455.302325 
L 452.192213 453.126525 
L 452.192213 450.950725 
L 452.192213 448.774925 
L 453.6343 447.687025 
L 455.076388 446.599125 
L 455.076388 444.423325 
L 455.076388 442.247525 
L 455.076388 440.071725 
L 456.518475 438.983825 
L 457.960563 437.895925 
L 457.960563 435.720125 
L 457.960563 433.544325 
L 457.960563 431.368525 
L 459.40265 430.280625 
L 460.844738 429.192725 
L 460.844738 427.016925 
L 460.844738 424.841125 
L 460.844738 422.665325 
L 462.286825 421.577425 
L 463.728913 420.489525 
L 463.728913 418.313725 
L 463.728913 416.137925 
L 463.728913 413.962125 
L 465.171 412.874225 
L 466.613088 411.786325 
L 466.613088 409.610525 
L 466.613088 407.434725 
L 466.613088 405.258925 
L 468.055175 404.171025 
L 469.497263 403.083125 
L 469.497263 400.907325 
L 469.497263 398.731525 
L 469.497263 396.555725 
L 470.93935 395.467825 
L 472.381438 394.379925 
L 472.381438 392.204125 
L 472.381438 390.028325 
L 472.381438 387.852525 
L 473.823525 386.764625 
L 475.265613 385.676725 
L 475.265613 383.500925 
L 475.265613 381.325125 
L 475.265613 379.149325 
L 476.7077 378.061425 
L 478.149788 376.973525 
L 478.149788 374.797725 
L 478.149788 372.621925 
L 478.149788 370.446125 
L 479.591875 369.358225 
L 481.033963 368.270325 
L 481.033963 366.094525 
L 481.033963 363.918725 
L 481.033963 361.742925 
L 482.47605 360.655025 
L 483.918138 359.567125 
L 483.918138 357.391325 
L 483.918138 355.215525 
L 483.918138 353.039725 
L 485.360225 351.951825 
L 486.802313 350.863925 
L 486.802313 348.688125 
L 486.802313 346.512325 
L 486.802313 344.336525 
L 488.2444 343.248625 
L 489.686488 342.160725 
L 489.686488 339.984925 
L 489.686488 337.809125 
L 489.686488 335.633325 
L 491.128575 334.545425 
L 492.570663 333.457525 
L 492.570663 331.281725 
L 492.570663 329.105925 
L 492.570663 326.930125 
L 494.01275 325.842225 
L 495.454838 324.754325 
L 495.454838 322.578525 
L 495.454838 320.402725 
L 495.454838 318.226925 
L 496.896925 317.139025 
L 498.339013 316.051125 
L 498.339013 313.875325 
L 498.339013 311.699525 
L 498.339013 309.523725 
L 499.7811 308.435825 
L 501.223188 307.347925 
L 501.223188 305.172125 
L 501.223188 302.996325 
L 501.223188 300.820525 
L 502.665275 299.732625 
L 504.107363 298.644725 
L 504.107363 296.468925 
L 504.107363 294.293125 
L 504.107363 292.117325 
L 505.54945 291.029425 
L 506.991538 289.941525 
L 506.991538 287.765725 
L 506.991538 285.589925 
L 506.991538 283.414125 
L 508.433625 282.326225 
L 509.875713 281.238325 
L 509.875713 279.062525 
L 509.875713 276.886725 
L 509.875713 274.710925 
L 511.3178 273.623025 
L 512.759888 272.535125 
L 512.759888 270.359325 
L 512.759888 268.183525 
L 512.759888 266.007725 
L 514.201975 264.919825 
L 515.644063 263.831925 
L 515.644063 261.656125 
L 515.644063 259.480325 
L 515.644063 257.304525 
L 517.08615 256.216625 
L 518.528238 255.128725 
L 518.528238 252.952925 
L 518.528238 250.777125 
L 518.528238 248.601325 
L 519.970325 247.513425 
L 521.412413 246.425525 
L 521.412413 244.249725 
L 521.412413 242.073925 
L 521.412413 239.898125 
L 522.8545 238.810225 
L 524.296588 237.722325 
L 524.296588 235.546525 
L 524.296588 233.370725 
L 524.296588 231.194925 
L 525.738675 230.107025 
L 527.180763 229.019125 
L 527.180763 226.843325 
L 527.180763 224.667525 
L 527.180763 222.491725 
L 528.62285 221.403825 
L 530.064938 220.315925 
L 530.064938 218.140125 
L 530.064938 215.964325 
L 530.064938 213.788525 
L 531.507025 212.700625 
L 532.949113 211.612725 
L 532.949113 209.436925 
L 532.949113 207.261125 
L 532.949113 205.085325 
L 534.3912 203.997425 
L 535.833288 202.909525 
L 535.833288 200.733725 
L 535.833288 198.557925 
L 535.833288 196.382125 
L 537.275375 195.294225 
L 538.717463 194.206325 
L 538.717463 192.030525 
L 538.717463 189.854725 
L 538.717463 187.678925 
L 540.15955 186.591025 
L 541.601638 185.503125 
L 541.601638 183.327325 
L 541.601638 181.151525 
L 541.601638 178.975725 
L 543.043725 177.887825 
L 544.485813 176.799925 
L 544.485813 174.624125 
L 544.485813 172.448325 
L 544.485813 170.272525 
L 545.9279 169.184625 
L 547.369988 168.096725 
L 547.369988 165.920925 
L 547.369988 163.745125 
L 547.369988 161.569325 
L 548.812075 160.481425 
L 550.254163 159.393525 
L 550.254163 157.217725 
L 550.254163 155.041925 
L 550.254163 152.866125 
L 551.69625 151.778225 
L 553.138338 150.690325 
L 553.138338 148.514525 
L 553.138338 146.338725 
L 553.138338 144.162925 
L 554.580425 143.075025 
L 556.022513 141.987125 
L 556.022513 139.811325 
L 556.022513 137.635525 
L 556.022513 135.459725 
L 557.4646 134.371825 
L 558.906688 133.283925 
L 558.906688 131.108125 
L 558.906688 128.932325 
L 558.906688 126.756525 
L 560.348775 125.668625 
L 561.790863 124.580725 
L 561.790863 122.404925 
L 561.790863 120.229125 
L 561.790863 118.053325 
L 563.23295 116.965425 
L 564.675038 115.877525 
L 564.675038 113.701725 
L 564.675038 111.525925 
L 564.675038 109.350125 
L 566.117125 108.262225 
L 567.559213 107.174325 
L 567.559213 104.998525 
L 567.559213 102.822725 
L 567.559213 100.646925 
L 569.0013 99.559025 
L 570.443388 98.471125 
L 570.443388 96.295325 
L 570.443388 94.119525 
L 570.443388 91.943725 
L 571.885475 90.855825 
L 573.327563 89.767925 
L 573.327563 87.592125 
L 573.327563 85.416325 
L 573.327563 83.240525 
L 574.76965 82.152625 
L 576.211738 81.064725 
L 576.211738 78.888925 
L 576.211738 76.713125 
L 576.211738 74.537325 
L 577.653825 73.449425 
L 579.095913 72.361525 
L 579.095913 70.185725 
L 579.095913 68.009925 
L 579.095913 65.834125 
L 580.538 64.746225 
L 581.980088 63.658325 
L 581.980088 61.482525 
L 581.980088 59.306725 
L 581.980088 57.130925 
L 583.422175 56.043025 
L 584.864263 54.955125 
L 584.864263 52.779325 
L 584.864263 50.603525 
L 584.864263 48.427725 
L 584.864263 46.251925 
L 584.864263 44.076125 
L 584.864263 41.900325 
L 584.864263 39.724525 
L 584.864263 37.548725 
L 584.864263 35.372925 
L 584.864263 33.197125 
L 584.864263 31.021325 
L 584.864263 28.845525 
L 584.864263 26.669725 
L 584.864263 24.493925 
L 584.864263 22.318125 
L 583.422175 22.318125 
L 580.538 22.318125 
L 577.653825 22.318125 
L 574.76965 22.318125 
L 571.885475 22.318125 
L 569.0013 22.318125 
L 566.117125 22.318125 
L 563.23295 22.318125 
L 560.348775 22.318125 
L 557.4646 22.318125 
L 554.580425 22.318125 
L 551.69625 22.318125 
L 548.812075 22.318125 
L 545.9279 22.318125 
L 543.043725 22.318125 
L 540.15955 22.318125 
L 537.275375 22.318125 
L 534.3912 22.318125 
L 531.507025 22.318125 
L 528.62285 22.318125 
L 525.738675 22.318125 
L 522.8545 22.318125 
L 519.970325 22.318125 
L 517.08615 22.318125 
L 514.201975 22.318125 
L 511.3178 22.318125 
L 508.433625 22.318125 
L 505.54945 22.318125 
L 502.665275 22.318125 
L 499.7811 22.318125 
L 496.896925 22.318125 
L 494.01275 22.318125 
L 491.128575 22.318125 
L 488.2444 22.318125 
L 485.360225 22.318125 
L 482.47605 22.318125 
L 479.591875 22.318125 
L 476.7077 22.318125 
L 473.823525 22.318125 
L 470.93935 22.318125 
L 469.497263 22.318125 
L 469.497263 24.493925 
L 469.497263 26.669725 
L 469.497263 28.845525 
L 469.497263 31.021325 
L 469.497263 33.197125 
L 469.497263 35.372925 
L 469.497263 37.548725 
L 469.497263 39.724525 
L 469.497263 41.900325 
L 469.497263 44.076125 
L 469.497263 46.251925 
L 469.497263 48.427725 
L 469.497263 50.603525 
L 469.497263 52.779325 
L 469.497263 54.955125 
L 469.497263 57.130925 
L 469.497263 59.306725 
L 469.497263 61.482525 
L 469.497263 63.658325 
L 469.497263 65.834125 
L 469.497263 68.009925 
L 469.497263 70.185725 
L 469.497263 72.361525 
L 469.497263 74.537325 
L 469.497263 76.713125 
L 469.497263 78.888925 
L 469.497263 81.064725 
L 469.497263 83.240525 
L 469.497263 85.416325 
L 469.497263 87.592125 
L 469.497263 89.767925 
L 469.497263 91.943725 
L 469.497263 94.119525 
L 469.497263 96.295325 
L 469.497263 98.471125 
L 469.497263 100.646925 
L 469.497263 102.822725 
L 469.497263 104.998525 
L 469.497263 107.174325 
L 469.497263 109.350125 
L 469.497263 111.525925 
L 469.497263 113.701725 
L 469.497263 115.877525 
L 469.497263 118.053325 
L 469.497263 120.229125 
L 469.497263 122.404925 
L 469.497263 124.580725 
L 469.497263 126.756525 
L 469.497263 128.932325 
L 469.497263 131.108125 
L 469.497263 133.283925 
L 469.497263 135.459725 
L 469.497263 137.635525 
L 469.497263 139.811325 
L 469.497263 141.987125 
L 468.055175 143.075025 
L 466.613088 144.162925 
L 466.613088 146.338725 
L 466.613088 148.514525 
L 466.613088 150.690325 
L 465.171 151.778225 
L 463.728913 152.866125 
L 463.728913 155.041925 
L 463.728913 157.217725 
L 463.728913 159.393525 
L 462.286825 160.481425 
L 460.844738 161.569325 
L 460.844738 163.745125 
L 460.844738 165.920925 
L 460.844738 168.096725 
L 459.40265 169.184625 
L 457.960563 170.272525 
L 457.960563 172.448325 
L 457.960563 174.624125 
L 457.960563 176.799925 
L 456.518475 177.887825 
L 455.076388 178.975725 
L 455.076388 181.151525 
L 455.076388 183.327325 
L 455.076388 185.503125 
L 453.6343 186.591025 
L 452.192213 187.678925 
L 452.192213 189.854725 
L 452.192213 192.030525 
L 452.192213 194.206325 
L 450.750125 195.294225 
L 449.308038 196.382125 
L 449.308038 198.557925 
L 449.308038 200.733725 
L 449.308038 202.909525 
L 447.86595 203.997425 
L 446.423863 205.085325 
L 446.423863 207.261125 
L 446.423863 209.436925 
L 446.423863 211.612725 
L 444.981775 212.700625 
L 443.539688 213.788525 
L 443.539688 215.964325 
L 443.539688 218.140125 
L 443.539688 220.315925 
L 442.0976 221.403825 
L 440.655513 222.491725 
L 440.655513 224.667525 
L 440.655513 226.843325 
L 440.655513 229.019125 
L 439.213425 230.107025 
L 437.771338 231.194925 
L 437.771338 233.370725 
L 437.771338 235.546525 
L 437.771338 237.722325 
L 436.32925 238.810225 
L 434.887163 239.898125 
L 434.887163 242.073925 
L 434.887163 244.249725 
L 434.887163 246.425525 
L 433.445075 247.513425 
L 432.002988 248.601325 
L 432.002988 250.777125 
L 432.002988 252.952925 
L 432.002988 255.128725 
L 430.5609 256.216625 
L 429.118813 257.304525 
L 429.118813 259.480325 
L 429.118813 261.656125 
L 429.118813 263.831925 
L 427.676725 264.919825 
L 426.234638 266.007725 
L 426.234638 268.183525 
L 426.234638 270.359325 
L 426.234638 272.535125 
L 424.79255 273.623025 
L 423.350463 274.710925 
L 423.350463 276.886725 
L 423.350463 279.062525 
L 423.350463 281.238325 
L 421.908375 282.326225 
L 420.466288 283.414125 
L 420.466288 285.589925 
L 420.466288 287.765725 
L 420.466288 289.941525 
L 419.0242 291.029425 
L 417.582113 292.117325 
L 417.582113 294.293125 
L 417.582113 296.468925 
L 417.582113 298.644725 
L 416.140025 299.732625 
L 414.697938 300.820525 
L 414.697938 302.996325 
L 414.697938 305.172125 
L 414.697938 307.347925 
L 413.25585 308.435825 
L 411.813763 309.523725 
L 411.813763 311.699525 
L 411.813763 313.875325 
L 411.813763 316.051125 
L 410.371675 317.139025 
L 408.929588 318.226925 
L 408.929588 320.402725 
L 408.929588 322.578525 
L 408.929588 324.754325 
L 407.4875 325.842225 
L 406.045413 326.930125 
L 406.045413 329.105925 
L 406.045413 331.281725 
L 406.045413 333.457525 
L 404.603325 334.545425 
L 403.161238 335.633325 
L 403.161238 337.809125 
L 403.161238 339.984925 
L 403.161238 342.160725 
L 401.71915 343.248625 
L 400.277063 344.336525 
L 400.277063 346.512325 
L 400.277063 348.688125 
L 400.277063 350.863925 
L 398.834975 351.951825 
L 397.392888 353.039725 
L 397.392888 355.215525 
L 397.392888 357.391325 
L 397.392888 359.567125 
L 395.9508 360.655025 
L 394.508713 361.742925 
L 394.508713 363.918725 
L 394.508713 366.094525 
L 394.508713 368.270325 
L 393.066625 369.358225 
L 391.624538 370.446125 
L 391.624538 372.621925 
L 391.624538 374.797725 
L 391.624538 376.973525 
L 390.18245 378.061425 
L 388.740363 379.149325 
L 388.740363 381.325125 
L 388.740363 383.500925 
L 388.740363 385.676725 
L 387.298275 386.764625 
L 385.856188 387.852525 
L 385.856188 390.028325 
L 385.856188 392.204125 
L 385.856188 394.379925 
L 384.4141 395.467825 
L 382.972013 396.555725 
L 382.972013 398.731525 
L 382.972013 400.907325 
L 382.972013 403.083125 
L 381.529925 404.171025 
L 380.087838 405.258925 
L 380.087838 407.434725 
L 380.087838 409.610525 
L 380.087838 411.786325 
L 378.64575 412.874225 
L 377.203663 413.962125 
L 377.203663 416.137925 
L 377.203663 418.313725 
L 377.203663 420.489525 
L 375.761575 421.577425 
L 374.319488 422.665325 
L 374.319488 424.841125 
L 374.319488 427.016925 
L 374.319488 429.192725 
L 372.8774 430.280625 
L 371.435313 431.368525 
L 371.435313 433.544325 
L 371.435313 435.720125 
L 371.435313 437.895925 
L 369.993225 438.983825 
L 368.551138 440.071725 
L 368.551138 442.247525 
L 368.551138 444.423325 
L 368.551138 446.599125 
L 367.10905 447.687025 
L 365.666963 448.774925 
L 365.666963 450.950725 
L 365.666963 453.126525 
L 365.666963 455.302325 
L 364.224875 456.390225 
L 362.782788 457.478125 
z
" clip-path="url(#pf78fa634ab)" style="fill: #ffe8a1; fill-opacity: 0.85"/>
    <path d="M 450.750125 457.478125 
L 453.6343 457.478125 
L 456.518475 457.478125 
L 459.40265 457.478125 
L 462.286825 457.478125 
L 465.171 457.478125 
L 468.055175 457.478125 
L 470.93935 457.478125 
L 473.823525 457.478125 
L 476.7077 457.478125 
L 479.591875 457.478125 
L 482.47605 457.478125 
L 485.360225 457.478125 
L 488.2444 457.478125 
L 491.128575 457.478125 
L 494.01275 457.478125 
L 496.896925 457.478125 
L 499.7811 457.478125 
L 502.665275 457.478125 
L 505.54945 457.478125 
L 508.433625 457.478125 
L 511.3178 457.478125 
L 514.201975 457.478125 
L 517.08615 457.478125 
L 519.970325 457.478125 
L 522.8545 457.478125 
L 525.738675 457.478125 
L 528.62285 457.478125 
L 531.507025 457.478125 
L 534.3912 457.478125 
L 537.275375 457.478125 
L 540.15955 457.478125 
L 543.043725 457.478125 
L 545.9279 457.478125 
L 548.812075 457.478125 
L 551.69625 457.478125 
L 554.580425 457.478125 
L 557.4646 457.478125 
L 560.348775 457.478125 
L 563.23295 457.478125 
L 566.117125 457.478125 
L 569.0013 457.478125 
L 571.885475 457.478125 
L 574.76965 457.478125 
L 577.653825 457.478125 
L 580.538 457.478125 
L 583.422175 457.478125 
L 586.30635 457.478125 
L 589.190525 457.478125 
L 592.0747 457.478125 
L 594.958875 457.478125 
L 597.84305 457.478125 
L 600.727225 457.478125 
L 603.6114 457.478125 
L 606.495575 457.478125 
L 609.37975 457.478125 
L 612.263925 457.478125 
L 615.1481 457.478125 
L 618.032275 457.478125 
L 620.91645 457.478125 
L 623.800625 457.478125 
L 623.800625 455.302325 
L 623.800625 453.126525 
L 623.800625 450.950725 
L 623.800625 448.774925 
L 623.800625 446.599125 
L 623.800625 444.423325 
L 623.800625 442.247525 
L 623.800625 440.071725 
L 623.800625 437.895925 
L 623.800625 435.720125 
L 623.800625 433.544325 
L 623.800625 431.368525 
L 623.800625 429.192725 
L 623.800625 427.016925 
L 623.800625 424.841125 
L 623.800625 422.665325 
L 623.800625 420.489525 
L 623.800625 418.313725 
L 623.800625 416.137925 
L 623.800625 413.962125 
L 623.800625 411.786325 
L 623.800625 409.610525 
L 623.800625 407.434725 
L 623.800625 405.258925 
L 623.800625 403.083125 
L 623.800625 400.907325 
L 623.800625 398.731525 
L 623.800625 396.555725 
L 623.800625 394.379925 
L 623.800625 392.204125 
L 623.800625 390.028325 
L 623.800625 387.852525 
L 623.800625 385.676725 
L 623.800625 383.500925 
L 623.800625 381.325125 
L 623.800625 379.149325 
L 623.800625 376.973525 
L 623.800625 374.797725 
L 623.800625 372.621925 
L 623.800625 370.446125 
L 623.800625 368.270325 
L 623.800625 366.094525 
L 623.800625 363.918725 
L 623.800625 361.742925 
L 623.800625 359.567125 
L 623.800625 357.391325 
L 623.800625 355.215525 
L 623.800625 353.039725 
L 623.800625 350.863925 
L 623.800625 348.688125 
L 623.800625 346.512325 
L 623.800625 344.336525 
L 623.800625 342.160725 
L 623.800625 339.984925 
L 623.800625 337.809125 
L 623.800625 335.633325 
L 623.800625 333.457525 
L 623.800625 331.281725 
L 623.800625 329.105925 
L 623.800625 326.930125 
L 623.800625 324.754325 
L 623.800625 322.578525 
L 623.800625 320.402725 
L 623.800625 318.226925 
L 623.800625 316.051125 
L 623.800625 313.875325 
L 623.800625 311.699525 
L 623.800625 309.523725 
L 623.800625 307.347925 
L 623.800625 305.172125 
L 623.800625 302.996325 
L 623.800625 300.820525 
L 623.800625 298.644725 
L 623.800625 296.468925 
L 623.800625 294.293125 
L 623.800625 292.117325 
L 623.800625 289.941525 
L 623.800625 287.765725 
L 623.800625 285.589925 
L 623.800625 283.414125 
L 623.800625 281.238325 
L 623.800625 279.062525 
L 623.800625 276.886725 
L 623.800625 274.710925 
L 623.800625 272.535125 
L 623.800625 270.359325 
L 623.800625 268.183525 
L 623.800625 266.007725 
L 623.800625 263.831925 
L 623.800625 261.656125 
L 623.800625 259.480325 
L 623.800625 257.304525 
L 623.800625 255.128725 
L 623.800625 252.952925 
L 623.800625 250.777125 
L 623.800625 248.601325 
L 623.800625 246.425525 
L 623.800625 244.249725 
L 623.800625 242.073925 
L 623.800625 239.898125 
L 623.800625 237.722325 
L 623.800625 235.546525 
L 623.800625 233.370725 
L 623.800625 231.194925 
L 623.800625 229.019125 
L 623.800625 226.843325 
L 623.800625 224.667525 
L 623.800625 222.491725 
L 623.800625 220.315925 
L 623.800625 218.140125 
L 623.800625 215.964325 
L 623.800625 213.788525 
L 623.800625 211.612725 
L 623.800625 209.436925 
L 623.800625 207.261125 
L 623.800625 205.085325 
L 623.800625 202.909525 
L 623.800625 200.733725 
L 623.800625 198.557925 
L 623.800625 196.382125 
L 623.800625 194.206325 
L 623.800625 192.030525 
L 623.800625 189.854725 
L 623.800625 187.678925 
L 623.800625 185.503125 
L 623.800625 183.327325 
L 623.800625 181.151525 
L 623.800625 178.975725 
L 623.800625 176.799925 
L 623.800625 174.624125 
L 623.800625 172.448325 
L 623.800625 170.272525 
L 623.800625 168.096725 
L 623.800625 165.920925 
L 623.800625 163.745125 
L 623.800625 161.569325 
L 623.800625 159.393525 
L 623.800625 157.217725 
L 623.800625 155.041925 
L 623.800625 152.866125 
L 623.800625 150.690325 
L 623.800625 148.514525 
L 623.800625 146.338725 
L 623.800625 144.162925 
L 623.800625 141.987125 
L 623.800625 139.811325 
L 623.800625 137.635525 
L 623.800625 135.459725 
L 623.800625 133.283925 
L 623.800625 131.108125 
L 623.800625 128.932325 
L 623.800625 126.756525 
L 623.800625 124.580725 
L 623.800625 122.404925 
L 623.800625 120.229125 
L 623.800625 118.053325 
L 623.800625 115.877525 
L 623.800625 113.701725 
L 623.800625 111.525925 
L 623.800625 109.350125 
L 623.800625 107.174325 
L 623.800625 104.998525 
L 623.800625 102.822725 
L 623.800625 100.646925 
L 623.800625 98.471125 
L 623.800625 96.295325 
L 623.800625 94.119525 
L 623.800625 91.943725 
L 623.800625 89.767925 
L 623.800625 87.592125 
L 623.800625 85.416325 
L 623.800625 83.240525 
L 623.800625 81.064725 
L 623.800625 78.888925 
L 623.800625 76.713125 
L 623.800625 74.537325 
L 623.800625 72.361525 
L 623.800625 70.185725 
L 623.800625 68.009925 
L 623.800625 65.834125 
L 623.800625 63.658325 
L 623.800625 61.482525 
L 623.800625 59.306725 
L 623.800625 57.130925 
L 623.800625 54.955125 
L 623.800625 52.779325 
L 623.800625 50.603525 
L 623.800625 48.427725 
L 623.800625 46.251925 
L 623.800625 44.076125 
L 623.800625 41.900325 
L 623.800625 39.724525 
L 623.800625 37.548725 
L 623.800625 35.372925 
L 623.800625 33.197125 
L 623.800625 31.021325 
L 623.800625 28.845525 
L 623.800625 26.669725 
L 623.800625 24.493925 
L 623.800625 22.318125 
L 620.91645 22.318125 
L 618.032275 22.318125 
L 615.1481 22.318125 
L 612.263925 22.318125 
L 609.37975 22.318125 
L 606.495575 22.318125 
L 603.6114 22.318125 
L 600.727225 22.318125 
L 597.84305 22.318125 
L 594.958875 22.318125 
L 592.0747 22.318125 
L 589.190525 22.318125 
L 586.30635 22.318125 
L 584.864263 22.318125 
L 584.864263 24.493925 
L 584.864263 26.669725 
L 584.864263 28.845525 
L 584.864263 31.021325 
L 584.864263 33.197125 
L 584.864263 35.372925 
L 584.864263 37.548725 
L 584.864263 39.724525 
L 584.864263 41.900325 
L 584.864263 44.076125 
L 584.864263 46.251925 
L 584.864263 48.427725 
L 584.864263 50.603525 
L 584.864263 52.779325 
L 584.864263 54.955125 
L 583.422175 56.043025 
L 581.980088 57.130925 
L 581.980088 59.306725 
L 581.980088 61.482525 
L 581.980088 63.658325 
L 580.538 64.746225 
L 579.095913 65.834125 
L 579.095913 68.009925 
L 579.095913 70.185725 
L 579.095913 72.361525 
L 577.653825 73.449425 
L 576.211738 74.537325 
L 576.211738 76.713125 
L 576.211738 78.888925 
L 576.211738 81.064725 
L 574.76965 82.152625 
L 573.327563 83.240525 
L 573.327563 85.416325 
L 573.327563 87.592125 
L 573.327563 89.767925 
L 571.885475 90.855825 
L 570.443388 91.943725 
L 570.443388 94.119525 
L 570.443388 96.295325 
L 570.443388 98.471125 
L 569.0013 99.559025 
L 567.559213 100.646925 
L 567.559213 102.822725 
L 567.559213 104.998525 
L 567.559213 107.174325 
L 566.117125 108.262225 
L 564.675038 109.350125 
L 564.675038 111.525925 
L 564.675038 113.701725 
L 564.675038 115.877525 
L 563.23295 116.965425 
L 561.790863 118.053325 
L 561.790863 120.229125 
L 561.790863 122.404925 
L 561.790863 124.580725 
L 560.348775 125.668625 
L 558.906688 126.756525 
L 558.906688 128.932325 
L 558.906688 131.108125 
L 558.906688 133.283925 
L 557.4646 134.371825 
L 556.022513 135.459725 
L 556.022513 137.635525 
L 556.022513 139.811325 
L 556.022513 141.987125 
L 554.580425 143.075025 
L 553.138338 144.162925 
L 553.138338 146.338725 
L 553.138338 148.514525 
L 553.138338 150.690325 
L 551.69625 151.778225 
L 550.254163 152.866125 
L 550.254163 155.041925 
L 550.254163 157.217725 
L 550.254163 159.393525 
L 548.812075 160.481425 
L 547.369988 161.569325 
L 547.369988 163.745125 
L 547.369988 165.920925 
L 547.369988 168.096725 
L 545.9279 169.184625 
L 544.485813 170.272525 
L 544.485813 172.448325 
L 544.485813 174.624125 
L 544.485813 176.799925 
L 543.043725 177.887825 
L 541.601638 178.975725 
L 541.601638 181.151525 
L 541.601638 183.327325 
L 541.601638 185.503125 
L 540.15955 186.591025 
L 538.717463 187.678925 
L 538.717463 189.854725 
L 538.717463 192.030525 
L 538.717463 194.206325 
L 537.275375 195.294225 
L 535.833288 196.382125 
L 535.833288 198.557925 
L 535.833288 200.733725 
L 535.833288 202.909525 
L 534.3912 203.997425 
L 532.949113 205.085325 
L 532.949113 207.261125 
L 532.949113 209.436925 
L 532.949113 211.612725 
L 531.507025 212.700625 
L 530.064938 213.788525 
L 530.064938 215.964325 
L 530.064938 218.140125 
L 530.064938 220.315925 
L 528.62285 221.403825 
L 527.180763 222.491725 
L 527.180763 224.667525 
L 527.180763 226.843325 
L 527.180763 229.019125 
L 525.738675 230.107025 
L 524.296588 231.194925 
L 524.296588 233.370725 
L 524.296588 235.546525 
L 524.296588 237.722325 
L 522.8545 238.810225 
L 521.412413 239.898125 
L 521.412413 242.073925 
L 521.412413 244.249725 
L 521.412413 246.425525 
L 519.970325 247.513425 
L 518.528238 248.601325 
L 518.528238 250.777125 
L 518.528238 252.952925 
L 518.528238 255.128725 
L 517.08615 256.216625 
L 515.644063 257.304525 
L 515.644063 259.480325 
L 515.644063 261.656125 
L 515.644063 263.831925 
L 514.201975 264.919825 
L 512.759888 266.007725 
L 512.759888 268.183525 
L 512.759888 270.359325 
L 512.759888 272.535125 
L 511.3178 273.623025 
L 509.875713 274.710925 
L 509.875713 276.886725 
L 509.875713 279.062525 
L 509.875713 281.238325 
L 508.433625 282.326225 
L 506.991538 283.414125 
L 506.991538 285.589925 
L 506.991538 287.765725 
L 506.991538 289.941525 
L 505.54945 291.029425 
L 504.107363 292.117325 
L 504.107363 294.293125 
L 504.107363 296.468925 
L 504.107363 298.644725 
L 502.665275 299.732625 
L 501.223188 300.820525 
L 501.223188 302.996325 
L 501.223188 305.172125 
L 501.223188 307.347925 
L 499.7811 308.435825 
L 498.339013 309.523725 
L 498.339013 311.699525 
L 498.339013 313.875325 
L 498.339013 316.051125 
L 496.896925 317.139025 
L 495.454838 318.226925 
L 495.454838 320.402725 
L 495.454838 322.578525 
L 495.454838 324.754325 
L 494.01275 325.842225 
L 492.570663 326.930125 
L 492.570663 329.105925 
L 492.570663 331.281725 
L 492.570663 333.457525 
L 491.128575 334.545425 
L 489.686488 335.633325 
L 489.686488 337.809125 
L 489.686488 339.984925 
L 489.686488 342.160725 
L 488.2444 343.248625 
L 486.802313 344.336525 
L 486.802313 346.512325 
L 486.802313 348.688125 
L 486.802313 350.863925 
L 485.360225 351.951825 
L 483.918138 353.039725 
L 483.918138 355.215525 
L 483.918138 357.391325 
L 483.918138 359.567125 
L 482.47605 360.655025 
L 481.033963 361.742925 
L 481.033963 363.918725 
L 481.033963 366.094525 
L 481.033963 368.270325 
L 479.591875 369.358225 
L 478.149788 370.446125 
L 478.149788 372.621925 
L 478.149788 374.797725 
L 478.149788 376.973525 
L 476.7077 378.061425 
L 475.265613 379.149325 
L 475.265613 381.325125 
L 475.265613 383.500925 
L 475.265613 385.676725 
L 473.823525 386.764625 
L 472.381438 387.852525 
L 472.381438 390.028325 
L 472.381438 392.204125 
L 472.381438 394.379925 
L 470.93935 395.467825 
L 469.497263 396.555725 
L 469.497263 398.731525 
L 469.497263 400.907325 
L 469.497263 403.083125 
L 468.055175 404.171025 
L 466.613088 405.258925 
L 466.613088 407.434725 
L 466.613088 409.610525 
L 466.613088 411.786325 
L 465.171 412.874225 
L 463.728913 413.962125 
L 463.728913 416.137925 
L 463.728913 418.313725 
L 463.728913 420.489525 
L 462.286825 421.577425 
L 460.844738 422.665325 
L 460.844738 424.841125 
L 460.844738 427.016925 
L 460.844738 429.192725 
L 459.40265 430.280625 
L 457.960563 431.368525 
L 457.960563 433.544325 
L 457.960563 435.720125 
L 457.960563 437.895925 
L 456.518475 438.983825 
L 455.076388 440.071725 
L 455.076388 442.247525 
L 455.076388 444.423325 
L 455.076388 446.599125 
L 453.6343 447.687025 
L 452.192213 448.774925 
L 452.192213 450.950725 
L 452.192213 453.126525 
L 452.192213 455.302325 
L 450.750125 456.390225 
L 449.308038 457.478125 
z
" clip-path="url(#pf78fa634ab)" style="fill: #ffb4a2; fill-opacity: 0.85"/>
   </g>
   <g id="PathCollection_1">
    <defs>
     <path id="m93d049e289" d="M 0 4.743416 
C 1.257969 4.743416 2.464584 4.24362 3.354102 3.354102 
C 4.24362 2.464584 4.743416 1.257969 4.743416 0 
C 4.743416 -1.257969 4.24362 -2.464584 3.354102 -3.354102 
C 2.464584 -4.24362 1.257969 -4.743416 0 -4.743416 
C -1.257969 -4.743416 -2.464584 -4.24362 -3.354102 -3.354102 
C -4.24362 -2.464584 -4.743416 -1.257969 -4.743416 0 
C -4.743416 1.257969 -4.24362 2.464584 -3.354102 3.354102 
C -2.464584 4.24362 -1.257969 4.743416 0 4.743416 
z
" style="stroke: #e76f51"/>
    </defs>
    <g clip-path="url(#pf78fa634ab)">
     <use xlink:href="#m93d049e289" x="519.970325" y="379.149325" style="fill: #e76f51; stroke: #e76f51"/>
    </g>
   </g>
   <g id="PathCollection_2">
    <defs>
     <path id="mab90fd15d0" d="M 0 4.743416 
C 1.257969 4.743416 2.464584 4.24362 3.354102 3.354102 
C 4.24362 2.464584 4.743416 1.257969 4.743416 0 
C 4.743416 -1.257969 4.24362 -2.464584 3.354102 -3.354102 
C 2.464584 -4.24362 1.257969 -4.743416 0 -4.743416 
C -1.257969 -4.743416 -2.464584 -4.24362 -3.354102 -3.354102 
C -4.24362 -2.464584 -4.743416 -1.257969 -4.743416 0 
C -4.743416 1.257969 -4.24362 2.464584 -3.354102 3.354102 
C -2.464584 4.24362 -1.257969 4.743416 0 4.743416 
z
" style="stroke: #457b9d"/>
    </defs>
    <g clip-path="url(#pf78fa634ab)">
     <use xlink:href="#mab90fd15d0" x="450.750125" y="118.053325" style="fill: #457b9d; stroke: #457b9d"/>
    </g>
   </g>
   <g id="matplotlib.axis_1">
    <g id="xtick_1">
     <g id="line2d_1">
      <path d="M 46.965625 457.478125 
L 46.965625 22.318125 
" clip-path="url(#pf78fa634ab)" style="fill: none; stroke: #b0b0b0; stroke-opacity: 0.2; stroke-width: 0.8; stroke-linecap: square"/>
     </g>
     <g id="line2d_2">
      <defs>
       <path id="m39daee6844" d="M 0 0 
L 0 3.5 
" style="stroke: #000000; stroke-width: 0.8"/>
      </defs>
      <g>
       <use xlink:href="#m39daee6844" x="46.965625" y="457.478125" style="stroke: #000000; stroke-width: 0.8"/>
      </g>
     </g>
     <g id="text_1">
      <text style="font: 10px 'DejaVu Sans'; text-anchor: middle" x="46.965625" y="472.076563" transform="rotate(-0 46.965625 472.076563)">0</text>
     </g>
    </g>
    <g id="xtick_2">
     <g id="line2d_3">
      <path d="M 162.332625 457.478125 
L 162.332625 22.318125 
" clip-path="url(#pf78fa634ab)" style="fill: none; stroke: #b0b0b0; stroke-opacity: 0.2; stroke-width: 0.8; stroke-linecap: square"/>
     </g>
     <g id="line2d_4">
      <g>
       <use xlink:href="#m39daee6844" x="162.332625" y="457.478125" style="stroke: #000000; stroke-width: 0.8"/>
      </g>
     </g>
     <g id="text_2">
      <text style="font: 10px 'DejaVu Sans'; text-anchor: middle" x="162.332625" y="472.076563" transform="rotate(-0 162.332625 472.076563)">20</text>
     </g>
    </g>
    <g id="xtick_3">
     <g id="line2d_5">
      <path d="M 277.699625 457.478125 
L 277.699625 22.318125 
" clip-path="url(#pf78fa634ab)" style="fill: none; stroke: #b0b0b0; stroke-opacity: 0.2; stroke-width: 0.8; stroke-linecap: square"/>
     </g>
     <g id="line2d_6">
      <g>
       <use xlink:href="#m39daee6844" x="277.699625" y="457.478125" style="stroke: #000000; stroke-width: 0.8"/>
      </g>
     </g>
     <g id="text_3">
      <text style="font: 10px 'DejaVu Sans'; text-anchor: middle" x="277.699625" y="472.076563" transform="rotate(-0 277.699625 472.076563)">40</text>
     </g>
    </g>
    <g id="xtick_4">
     <g id="line2d_7">
      <path d="M 393.066625 457.478125 
L 393.066625 22.318125 
" clip-path="url(#pf78fa634ab)" style="fill: none; stroke: #b0b0b0; stroke-opacity: 0.2; stroke-width: 0.8; stroke-linecap: square"/>
     </g>
     <g id="line2d_8">
      <g>
       <use xlink:href="#m39daee6844" x="393.066625" y="457.478125" style="stroke: #000000; stroke-width: 0.8"/>
      </g>
     </g>
     <g id="text_4">
      <text style="font: 10px 'DejaVu Sans'; text-anchor: middle" x="393.066625" y="472.076563" transform="rotate(-0 393.066625 472.076563)">60</text>
     </g>
    </g>
    <g id="xtick_5">
     <g id="line2d_9">
      <path d="M 508.433625 457.478125 
L 508.433625 22.318125 
" clip-path="url(#pf78fa634ab)" style="fill: none; stroke: #b0b0b0; stroke-opacity: 0.2; stroke-width: 0.8; stroke-linecap: square"/>
     </g>
     <g id="line2d_10">
      <g>
       <use xlink:href="#m39daee6844" x="508.433625" y="457.478125" style="stroke: #000000; stroke-width: 0.8"/>
      </g>
     </g>
     <g id="text_5">
      <text style="font: 10px 'DejaVu Sans'; text-anchor: middle" x="508.433625" y="472.076563" transform="rotate(-0 508.433625 472.076563)">80</text>
     </g>
    </g>
    <g id="xtick_6">
     <g id="line2d_11">
      <path d="M 623.800625 457.478125 
L 623.800625 22.318125 
" clip-path="url(#pf78fa634ab)" style="fill: none; stroke: #b0b0b0; stroke-opacity: 0.2; stroke-width: 0.8; stroke-linecap: square"/>
     </g>
     <g id="line2d_12">
      <g>
       <use xlink:href="#m39daee6844" x="623.800625" y="457.478125" style="stroke: #000000; stroke-width: 0.8"/>
      </g>
     </g>
     <g id="text_6">
      <text style="font: 10px 'DejaVu Sans'; text-anchor: middle" x="623.800625" y="472.076563" transform="rotate(-0 623.800625 472.076563)">100</text>
     </g>
    </g>
    <g id="text_7">
     <text style="font: 10px 'DejaVu Sans'; text-anchor: middle" x="335.383125" y="485.754688" transform="rotate(-0 335.383125 485.754688)">Disturbance score</text>
    </g>
   </g>
   <g id="matplotlib.axis_2">
    <g id="ytick_1">
     <g id="line2d_13">
      <path d="M 46.965625 457.478125 
L 623.800625 457.478125 
" clip-path="url(#pf78fa634ab)" style="fill: none; stroke: #b0b0b0; stroke-opacity: 0.2; stroke-width: 0.8; stroke-linecap: square"/>
     </g>
     <g id="line2d_14">
      <defs>
       <path id="md25e33dc07" d="M 0 0 
L -3.5 0 
" style="stroke: #000000; stroke-width: 0.8"/>
      </defs>
      <g>
       <use xlink:href="#md25e33dc07" x="46.965625" y="457.478125" style="stroke: #000000; stroke-width: 0.8"/>
      </g>
     </g>
     <g id="text_8">
      <text style="font: 10px 'DejaVu Sans'; text-anchor: end" x="39.965625" y="461.277344" transform="rotate(-0 39.965625 461.277344)">0</text>
     </g>
    </g>
    <g id="ytick_2">
     <g id="line2d_15">
      <path d="M 46.965625 370.446125 
L 623.800625 370.446125 
" clip-path="url(#pf78fa634ab)" style="fill: none; stroke: #b0b0b0; stroke-opacity: 0.2; stroke-width: 0.8; stroke-linecap: square"/>
     </g>
     <g id="line2d_16">
      <g>
       <use xlink:href="#md25e33dc07" x="46.965625" y="370.446125" style="stroke: #000000; stroke-width: 0.8"/>
      </g>
     </g>
     <g id="text_9">
      <text style="font: 10px 'DejaVu Sans'; text-anchor: end" x="39.965625" y="374.245344" transform="rotate(-0 39.965625 374.245344)">20</text>
     </g>
    </g>
    <g id="ytick_3">
     <g id="line2d_17">
      <path d="M 46.965625 283.414125 
L 623.800625 283.414125 
" clip-path="url(#pf78fa634ab)" style="fill: none; stroke: #b0b0b0; stroke-opacity: 0.2; stroke-width: 0.8; stroke-linecap: square"/>
     </g>
     <g id="line2d_18">
      <g>
       <use xlink:href="#md25e33dc07" x="46.965625" y="283.414125" style="stroke: #000000; stroke-width: 0.8"/>
      </g>
     </g>
     <g id="text_10">
      <text style="font: 10px 'DejaVu Sans'; text-anchor: end" x="39.965625" y="287.213344" transform="rotate(-0 39.965625 287.213344)">40</text>
     </g>
    </g>
    <g id="ytick_4">
     <g id="line2d_19">
      <path d="M 46.965625 196.382125 
L 623.800625 196.382125 
" clip-path="url(#pf78fa634ab)" style="fill: none; stroke: #b0b0b0; stroke-opacity: 0.2; stroke-width: 0.8; stroke-linecap: square"/>
     </g>
     <g id="line2d_20">
      <g>
       <use xlink:href="#md25e33dc07" x="46.965625" y="196.382125" style="stroke: #000000; stroke-width: 0.8"/>
      </g>
     </g>
     <g id="text_11">
      <text style="font: 10px 'DejaVu Sans'; text-anchor: end" x="39.965625" y="200.181344" transform="rotate(-0 39.965625 200.181344)">60</text>
     </g>
    </g>
    <g id="ytick_5">
     <g id="line2d_21">
      <path d="M 46.965625 109.350125 
L 623.800625 109.350125 
" clip-path="url(#pf78fa634ab)" style="fill: none; stroke: #b0b0b0; stroke-opacity: 0.2; stroke-width: 0.8; stroke-linecap: square"/>
     </g>
     <g id="line2d_22">
      <g>
       <use xlink:href="#md25e33dc07" x="46.965625" y="109.350125" style="stroke: #000000; stroke-width: 0.8"/>
      </g>
     </g>
     <g id="text_12">
      <text style="font: 10px 'DejaVu Sans'; text-anchor: end" x="39.965625" y="113.149344" transform="rotate(-0 39.965625 113.149344)">80</text>
     </g>
    </g>
    <g id="ytick_6">
     <g id="line2d_23">
      <path d="M 46.965625 22.318125 
L 623.800625 22.318125 
" clip-path="url(#pf78fa634ab)" style="fill: none; stroke: #b0b0b0; stroke-opacity: 0.2; stroke-width: 0.8; stroke-linecap: square"/>
     </g>
     <g id="line2d_24">
      <g>
       <use xlink:href="#md25e33dc07" x="46.965625" y="22.318125" style="stroke: #000000; stroke-width: 0.8"/>
      </g>
     </g>
     <g id="text_13">
      <text style="font: 10px 'DejaVu Sans'; text-anchor: end" x="39.965625" y="26.117344" transform="rotate(-0 39.965625 26.117344)">100</text>
     </g>
    </g>
    <g id="text_14">
     <text style="font: 10px 'DejaVu Sans'; text-anchor: middle" x="14.798438" y="239.898125" transform="rotate(-90 14.798438 239.898125)">Buoy motion score</text>
    </g>
   </g>
   <g id="QuadContourSet_2">
    <path d="M 354.610958 22.318125 
L 354.610958 224.667525 
L 354.130263 226.843325 
L 332.644612 291.677779 
M 315.048238 344.776071 
L 277.699625 457.478125 
L 277.699625 457.478125 
" clip-path="url(#pf78fa634ab)" style="fill: none; stroke: #6c757d; stroke-width: 1.5"/>
    <path d="M 469.977958 22.318125 
L 469.977958 137.635525 
L 469.497263 139.811325 
L 390.328112 378.709779 
M 372.731738 431.808071 
L 364.224875 457.478125 
L 364.224875 457.478125 
" clip-path="url(#pf78fa634ab)" style="fill: none; stroke: #e9c46a; stroke-width: 1.5"/>
    <path d="M 585.344958 22.318125 
L 585.344958 50.603525 
L 584.864263 52.779325 
L 517.231812 256.864979 
M 499.635438 309.963271 
L 450.750125 457.478125 
L 450.750125 457.478125 
" clip-path="url(#pf78fa634ab)" style="fill: none; stroke: #d00000; stroke-width: 1.5"/>
   </g>
   <g id="patch_3">
    <path d="M 46.965625 457.478125 
L 46.965625 22.318125 
" style="fill: none; stroke: #000000; stroke-width: 0.8; stroke-linejoin: miter; stroke-linecap: square"/>
   </g>
   <g id="patch_4">
    <path d="M 46.965625 457.478125 
L 623.800625 457.478125 
" style="fill: none; stroke: #000000; stroke-width: 0.8; stroke-linejoin: miter; stroke-linecap: square"/>
   </g>
   <g id="text_15">
    <text style="font: 700 12px 'DejaVu Sans'; text-anchor: middle" x="335.383125" y="16.318125" transform="rotate(-0 335.383125 16.318125)">Initial decision regions before lake-data tuning</text>
   </g>
   <g id="text_16">
    <g clip-path="url(#pf78fa634ab)">
     <text style="fill: #6c757d; font: 10px 'DejaVu Sans'" transform="translate(319.889535 339.422412) rotate(-72.072788)">score 40</text>
    </g>
   </g>
   <g id="text_17">
    <g clip-path="url(#pf78fa634ab)">
     <text style="fill: #e9c46a; font: 10px 'DejaVu Sans'" transform="translate(377.573035 426.454412) rotate(-72.072788)">score 55</text>
    </g>
   </g>
   <g id="text_18">
    <g clip-path="url(#pf78fa634ab)">
     <text style="fill: #d00000; font: 10px 'DejaVu Sans'" transform="translate(504.476735 304.609612) rotate(-72.072788)">score 70</text>
    </g>
   </g>
   <g id="legend_1">
    <g id="patch_5">
     <path d="M 53.965625 59.674375 
L 234.5625 59.674375 
Q 236.5625 59.674375 236.5625 57.674375 
L 236.5625 29.318125 
Q 236.5625 27.318125 234.5625 27.318125 
L 53.965625 27.318125 
Q 51.965625 27.318125 51.965625 29.318125 
L 51.965625 57.674375 
Q 51.965625 59.674375 53.965625 59.674375 
z
" style="fill: #ffffff; opacity: 0.8; stroke: #cccccc; stroke-linejoin: miter"/>
    </g>
    <g id="PathCollection_3">
     <g>
      <use xlink:href="#m93d049e289" x="65.965625" y="36.291562" style="fill: #e76f51; stroke: #e76f51"/>
     </g>
    </g>
    <g id="text_19">
     <text style="font: 10px 'DejaVu Sans'; text-anchor: start" x="83.965625" y="38.916562" transform="rotate(-0 83.965625 38.916562)">Local dummy splash example</text>
    </g>
    <g id="PathCollection_4">
     <g>
      <use xlink:href="#mab90fd15d0" x="65.965625" y="50.969688" style="fill: #457b9d; stroke: #457b9d"/>
     </g>
    </g>
    <g id="text_20">
     <text style="font: 10px 'DejaVu Sans'; text-anchor: start" x="83.965625" y="53.594688" transform="rotate(-0 83.965625 53.594688)">Common wave example</text>
    </g>
   </g>
  </g>
  <g id="text_21">
   <text style="fill: #9d0208; font: 700 9px 'DejaVu Sans'; text-anchor: end" x="640.855625" y="494.976094" transform="rotate(-0 640.855625 494.976094)">Illustrative synthetic data</text>
  </g>
 </g>
 <defs>
  <clipPath id="pf78fa634ab">
   <rect x="46.965625" y="22.318125" width="576.835" height="435.16"/>
  </clipPath>
 </defs>
</svg>
